<ttFont>
          <CharString index="0">
            595 250 rmoveto
            -150 -90 -90 -90 -95 -60 60 180 vhcurveto
            420 -72 callgsubr
            -420 vlineto
            -165 100 -100 200 56 callsubr
            165 vhcurveto
            -71 callgsubr
            return
          </CharString>
          <CharString index="1">
            -86 callgsubr
            -101 callgsubr
            return
          </CharString>
          <CharString index="2">
            0 -20 5 -15 -35 -25 -25 -35 -45 40 -40 -40 callgsubr
            40 40 45 35 -25 25 -35 -15 -20 -5 0 vhcurveto
            -110 vlineto
            return
          </CharString>
          <CharString index="3">
            -86 callsubr
            -15 280 -100 callgsubr
            return
          </CharString>
          <CharString index="4">
            365 184 rmoveto
            -125 231 rlineto
            50 -27 -33 -54 callsubr
            50 -15 260 -480 -20 -50 -36 -90 -29 -30 -35 -5 rlinecurve
            135 vlineto
            -37 callsubr
            -50 -55 35 -35 60 60 47 45 110 43 vhcurveto
            200 515 80 30 rlineto
            15 -185 -22 callgsubr
            rlineto
            return
          </CharString>
          <CharString index="5">
            rmoveto
            -48 callsubr
            70 110 -70 rlineto
            35 hlineto
            -145 165 rlineto
            endchar
          </CharString>
          <CharString index="6">
            -93 callsubr
            640 vlineto
            -11 callgsubr
            -285 -15 vlineto
            return
          </CharString>
          <CharString index="7">
            rmoveto
            -40 -150 rlineto
            35 hlineto
            135 150 rlineto
            endchar
          </CharString>
          <CharString index="8">
            275 360 rmoveto
            315 -98 callgsubr
            return
          </CharString>
          <CharString index="9">
            305 -10 rmoveto
            30 hlineto
            155 457 180 -457 rlineto
            30 hlineto
            225 665 80 30 rlineto
            15 -185 -22 callgsubr
            -144 -425 -151 385 rlineto
            45 -18 -42 40 -75 hhcurveto
            -120 -15 hlineto
            55 -10 74 -187 -88 -258 -151 385 rlineto
            45 -17 -43 40 -75 hhcurveto
            -120 -15 hlineto
            55 -10 rlineto
            return
          </CharString>
          <CharString index="10">
            0 20 10 30 70 40 -40 -155 vhcurveto
            -30 vlineto
            -135 -5 -145 -35 0 0 -35 -50 -60 vvcurveto
            -75 60 -60 125 -25 callgsubr
            return
          </CharString>
          <CharString index="11">
            361 715 rmoveto
            -186 -49 callsubr
            -235 -235 130 -130 210 56 callsubr
            115 hvcurveto
            -25 hlineto
            -100 -90 -90 -95 -105 -80 80 -76 callgsubr
            vhcurveto
            40 hlineto
            return
          </CharString>
          <CharString index="12">
            rmoveto
            -35 hlineto
            -110 -80 -110 80 rlineto
            -35 hlineto
            115 -150 rlineto
            60 hlineto
            endchar
          </CharString>
          <CharString index="13">
            210 250 rmoveto
            205 -14 callgsubr
            -40 -120 -40 -10 -35 0 vhcurveto
            0 -50 -10 -90 vhcurveto
            100 -265 rmoveto
            return
          </CharString>
          <CharString index="14">
            vlineto
            -92 callsubr
            return
          </CharString>
          <CharString index="15">
            -86 callsubr
            -15 285 -100 callgsubr
            return
          </CharString>
          <CharString index="16">
            -67 callgsubr
            55 -55 55 57 callgsubr
            -100 -100 -165 -165 100 -100 170 115 75 75 80 vhcurveto
            -25 hlineto
            -65 -65 -65 -80 return
          </CharString>
          <CharString index="17">
            0 -16 5 -24 -45 -30 -30 -45 -50 60 -60 190 185 80 80 100 105 -60 60 -100 vhcurveto
            -190 hlineto
            -65 -15 15 20 20 40 15 0 hvcurveto
            -15 35 45 -10 50 hhcurveto
            150 70 70 95 45 -15 40 -35 30 hvcurveto
            return
          </CharString>
          <CharString index="18">
            -125 -30 -30 -25 -25 -30 30 125 125 30 30 25 25 30 -30 -125 vhcurveto
            110 hmoveto
            105 -70 70 -95 -95 -70 -70 -105 -105 70 -70 95 95 70 70 105 vhcurveto
            return
          </CharString>
          <CharString index="19">
            80 30 rlineto
            15 -190 -15 vlineto
            return
          </CharString>
          <CharString index="20">
            90 45 rmoveto
            66 160 rlineto
            239 hlineto
            51 -120 rlineto
            -45 19 40 -40 75 hhcurveto
            return
          </CharString>
          <CharString index="21">
            -60 -15 rlineto
            return
          </CharString>
          <CharString index="22">
            190 -25 vlineto
            0 -35 -20 -20 -35 vhcurveto
            return
          </CharString>
          <CharString index="23">
            rmoveto
            135 -150 rlineto
            35 hlineto
            -40 150 rlineto
            endchar
          </CharString>
          <CharString index="24">
            0 65 -65 115 185 90 90 105 vhcurveto
            220 -355 10 170 vvcurveto
            65 45 45 50 -35 callgsubr
            return
          </CharString>
          <CharString index="25">
            -40 -20 50 -60 hhcurveto
            -55 -35 -35 -80 hvcurveto
            20 hlineto
            25 20 20 25 vhcurveto
            return
          </CharString>
          <CharString index="26">
            -88 callsubr
            80 -30 rlineto
            return
          </CharString>
          <CharString index="27">
            -60 callgsubr
            535 -59 callgsubr
            -215 3 callsubr
            vlineto
            return
          </CharString>
          <CharString index="28">
            -105 65 -50 0 vhcurveto
            30 180 return
          </CharString>
          <CharString index="29">
            275 -15 rmoveto
            170 60 60 85 hvcurveto
            160 -290 10 120 vvcurveto
            40 30 30 35 110 46 -155 0 vhcurveto
            return
          </CharString>
          <CharString index="30">
            -12 callsubr
            -15 vlineto
            -86 callgsubr
            -79 callgsubr
            return
          </CharString>
          <CharString index="31">
            325 475 rmoveto
            -285 -450 rlineto
            -25 465 175 -30 vlineto
            0 -65 -55 -95 vvcurveto
            -190 hlineto
            285 450 rlineto
            25 -455 -175 30 vlineto
            0 65 55 95 vvcurveto
            return
          </CharString>
          <CharString index="32">
            -29 callgsubr
            hstemhm
            45 170 185 170 hintmask 10110110
            275 10 rmoveto
            -155 -45 175 0 hvcurveto
            -40 hlineto
            hintmask 01110110
            -46 callsubr
            hintmask 10110110
            -83 callsubr
            hintmask 10101110
            -85 callsubr
            hintmask 10110110
            0 -65 65 -95 -165 -80 -80 -95 vhcurveto
            -240 355 -10 -155 vvcurveto
            -75 -50 -50 -75 vhcurveto
            endchar
          </CharString>
          <CharString index="33">
            rmoveto
            55 35 35 80 hvcurveto
            -20 hlineto
            -25 -20 -20 -25 vhcurveto
            hintmask 00000100
            -82 callsubr
            hintmask 00010000
            40 20 -50 60 hhcurveto
            endchar
          </CharString>
          <CharString index="34">
            0 -95 -30 -80 vvcurveto
            -60 50 -50 105 vhcurveto
            190 hlineto
            90 30 -30 -35 -60 -60 -60 -175 -65 -60 20 0 hvcurveto
            140 vlineto
            return
          </CharString>
          <CharString index="35">
            rmoveto
            55 -45 45 -60 -60 -45 -45 -55 -55 45 -45 60 60 45 45 55 vhcurveto
            -50 hmoveto
            -40 -25 -25 -30 -30 -25 25 40 40 25 25 30 30 25 -25 -40 vhcurveto
            endchar
          </CharString>
          <CharString index="36">
            60 15 rlineto
            return
          </CharString>
          <CharString index="37">
            110 165 return
          </CharString>
          <CharString index="38">
            -32 -15 -62 callgsubr
            return
          </CharString>
          <CharString index="39">
            rmoveto
            -17 callsubr
            30 hmoveto
            -17 callsubr
            endchar
          </CharString>
          <CharString index="40">
            -35 -20 11 -1 hvcurveto
            110 vlineto
            return
          </CharString>
          <CharString index="41">
            465 -545 rlineto
            30 670 hlineto
            -81 callsubr
            return
          </CharString>
          <CharString index="42">
            35 callgsubr
            15 335 hlineto
            -34 callsubr
            return
          </CharString>
          <CharString index="43">
            36 callgsubr
            hstem
            95 45 rmoveto
            10 callsubr
            190 15 vlineto
            -75 30 152 223 108 -183 rlineto
            -50 30 35 -35 70 hhcurveto
            145 -14 callsubr
            -232 394 157 231 -88 callsubr
            75 -30 -139 -204 -96 164 rlineto
            50 -30 -35 35 -70 hhcurveto
            -145 3 callgsubr
            220 -374 rlineto
            endchar
          </CharString>
          <CharString index="44">
            -132 21 -21 335 170 -5 -20 101 -21 150 -20 hstemhm
            -28 callsubr
            125 115 hintmask 11000110
            -51 callgsubr
            hintmask 10100110
            0 -20 75 -95 vhcurveto
            -90 -15 hlineto
            -106 callsubr
            370 vlineto
            0 45 80 80 vhcurveto
            hintmask 00011000
            return
          </CharString>
          <CharString index="45">
            0 callgsubr
            -125 125 43 callsubr
            return
          </CharString>
          <CharString index="46">
            -87 -15 20 -20 185 530 -20 hstemhm
            0 115 170 165 hintmask 10111000
            165 5 rmoveto
            -30 -20 10 0 hvcurveto
            150 vlineto
            hintmask 01111000
            -50 callgsubr
            -55 55 -55 130 185 80 80 135 vhcurveto
            470 -72 callgsubr
            -470 vlineto
            hintmask 10111000
            -145 -50 -50 -70 vhcurveto
            endchar
          </CharString>
          <CharString index="47">
            330 495 rmoveto
            30 20 -10 0 hvcurveto
            -150 vlineto
            return
          </CharString>
          <CharString index="48">
            -20 9 callgsubr
            300 175 hintmask 11001100
            520 350 rmoveto
            -265 -80 -80 -70 -70 -80 80 265 265 80 80 70 70 80 -80 -265 vhcurveto
            175 hmoveto
            -41 callsubr
            -195 40 callgsubr
            -235 130 -130 8 callsubr
            130 130 235 vhcurveto
            hintmask 00110000
            return
          </CharString>
          <CharString index="49">
            650 30 rmoveto
            -270 410 175 215 -88 callsubr
            75 -30 -245 -299 rlineto
            314 -39 callgsubr
            285 15 vlineto
            -60 15 rlineto
            285 vlineto
            150 -230 rlineto
            -45 30 40 -40 65 hhcurveto
            140 15 hlineto
            return
          </CharString>
          <CharString index="50">
            rmoveto
            -220 170 -170 210 210 55 callgsubr
            220 220 -170 170 -210 -210 -170 -170 -220 vhcurveto
            725 hmoveto
            -210 -150 -150 8 callgsubr
            -150 150 210 210 150 150 8 callsubr
            150 -150 -210 vhcurveto
            endchar
          </CharString>
          <CharString index="51">
            345 140 rmoveto
            -35 -85 -35 -35 -30 -5 rrcurveto
            140 vlineto
            -9 callgsubr
            55 47 45 110 48 vhcurveto
            225 515 80 30 rlineto
            15 -185 -22 callgsubr
            -146 -333 -169 293 rlineto
            45 -26 -39 40 -70 hhcurveto
            -130 3 callgsubr
            rlineto
            return
          </CharString>
          <CharString index="52">
            -47 54 71 -24 82 hhcurveto
            195 130 130 235 hvcurveto
            -175 hmoveto
            -265 -80 -80 -70 -49 -54 38 113 -28 vhcurveto
            269 351 rlineto
            7 -43 5 -52 -62 vvcurveto
            -300 hmoveto
            265 80 80 70 48 54 -39 -113 28 vhcurveto
            -268 -351 rlineto
            -8 43 -4 52 63 vvcurveto
            return
          </CharString>
          <CharString index="53">
            35 -75 hhcurveto
            -125 -15 hlineto
            return
          </CharString>
          <CharString index="54">
            43 21 -31 callsubr
            return
          </CharString>
          <CharString index="55">
            1 -20 -11 -35 vhcurveto
            endchar
          </CharString>
          <CharString index="56">
            0 15 -5 20 30 25 25 40 50 -35 35 -45 -70 -25 -60 0 vhcurveto
            return
          </CharString>
          <CharString index="57">
            0 -37 callgsubr
            return
          </CharString>
          <CharString index="58">
            -130 -130 return
          </CharString>
          <CharString index="59">
            35 hlineto
            110 return
          </CharString>
          <CharString index="60">
            270 rmoveto
            0 40 15 15 55 vhcurveto
            25 90 8 30 12 15 20 5 rlinecurve
            -135 41 callsubr
            50 vhcurveto
            return
          </CharString>
          <CharString index="61">
            -190 25 vlineto
            0 35 20 20 35 vhcurveto
            return
          </CharString>
          <CharString index="62">
            105 40 90 0 return
          </CharString>
          <CharString index="63">
            -12 callgsubr
            -25 hlineto
            0 -35 -15 -20 -30 vhcurveto
            return
          </CharString>
          <CharString index="64">
            21 -22 callsubr
            return
          </CharString>
          <CharString index="65">
            0 44 20 21 80 vhcurveto
            35 130 11 40 23 25 21 5 rlinecurve
            -140 vlineto
            0 20 -5 20 45 35 35 50 vhcurveto
            return
          </CharString>
          <CharString index="66">
            235 -130 130 return
          </CharString>
          <CharString index="67">
            -31 42 56 -16 65 hhcurveto
            165 100 100 165 86 -32 69 -49 45 hvcurveto
            41 50 rlineto
            -225 -495 rmoveto
            -34 -36 27 93 -16 hvcurveto
            177 213 rlineto
            2 -25 2 -30 -33 vvcurveto
            -195 -50 -50 -45 vhcurveto
            -95 245 rmoveto
            return
          </CharString>
          <CharString index="68">
            rmoveto
            45 -260 -45 vlineto
            endchar
          </CharString>
          <CharString index="69">
            625 rmoveto
            -65 callgsubr
            return
          </CharString>
          <CharString index="70">
            12 callsubr
            -30 -30 return
          </CharString>
          <CharString index="71">
            -75 callgsubr
            endchar
          </CharString>
          <CharString index="72">
            -88 callgsubr
            -645 -185 5 callgsubr
            -645 -185 5 callgsubr
            -10 callsubr
            return
          </CharString>
          <CharString index="73">
            -88 callgsubr
            -230 vlineto
            return
          </CharString>
          <CharString index="74">
            hstemhm
            -70 callsubr
            215 95 -75 95 return
          </CharString>
          <CharString index="75">
            0 -20 5 -20 return
          </CharString>
          <CharString index="76">
            -21 205 25 480 -20 return
          </CharString>
          <CharString index="77">
            -21 -7 callgsubr
            return
          </CharString>
          <CharString index="78">
            -88 callsubr
            75 -30 -152 return
          </CharString>
          <CharString index="79">
            100 160 return
          </CharString>
          <CharString index="80">
            -77 -26 callgsubr
            return
          </CharString>
          <CharString index="81">
            21 7 callsubr
            return
          </CharString>
          <CharString index="82">
            -515 -700 rlineto
            55 hlineto
            515 700 rlineto
            return
          </CharString>
          <CharString index="83">
            25 215 25 245 20 return
          </CharString>
          <CharString index="84">
            -20 hstemhm
            -70 callsubr
            return
          </CharString>
          <CharString index="85">
            -21 500 -20 return
          </CharString>
          <CharString index="86">
            0 65 50 105 vvcurveto
            115 -3 callgsubr
            -15 vlineto
            return
          </CharString>
          <CharString index="87">
            vvcurveto
            110 -90 90 return
          </CharString>
          <CharString index="88">
            60 -30 30 -60 vhcurveto
            55 callsubr
            -86 callgsubr
            -640 -103 callgsubr
            370 vlineto
            0 30 80 60 35 40 -40 -90 vhcurveto
            return
          </CharString>
          <CharString index="89">
            50 -40 40 -60 -50 -39 -40 -60 -16 vhcurveto
            -35 -130 rlineto
            -60 -16 -34 -35 -50 hhcurveto
            return
          </CharString>
          <CharString index="90">
            -45 -150 rlineto
            -48 callsubr
            150 rlineto
            return
          </CharString>
          <CharString index="91">
            35 -4 -5 callgsubr
            return
          </CharString>
          <CharString index="92">
            103 -15 20 690 20 return
          </CharString>
          <CharString index="93">
            15 hlineto
            -50 15 return
          </CharString>
          <CharString index="94">
            -25 0 vvcurveto
            endchar
          </CharString>
          <CharString index="95">
            15 -285 return
          </CharString>
          <CharString index="96">
            100 470 rmoveto
            22 callsubr
            vlineto
            -95 65 -55 0 vhcurveto
            30 175 -465 -15 hlineto
            return
          </CharString>
          <CharString index="97">
            -640 vlineto
            return
          </CharString>
          <CharString index="98">
            hstemhm
            40 -23 callgsubr
            return
          </CharString>
          <CharString index="99">
            20 -20 145 hstemhm
            return
          </CharString>
          <CharString index="100">
            45 175 return
          </CharString>
          <CharString index="101">
            -21 150 -23 callsubr
            return
          </CharString>
          <CharString index="102">
            80 80 80 -61 callgsubr
            return
          </CharString>
          <CharString index="103">
            70 -20 20 -20 70 hstemhm
            return
          </CharString>
          <CharString index="104">
            -20 hstem
            -70 callsubr
            return
          </CharString>
          <CharString index="105">
            -440 vlineto
            -86 callsubr
            return
          </CharString>
          <CharString index="106">
            95 110 95 return
          </CharString>
          <CharString index="107">
            46 -54 -71 25 -82 hhcurveto
            40 callgsubr
            -120 39 -93 58 -62 hvcurveto
            -57 -75 rlineto
            35 hlineto
            43 56 rlineto
            return
          </CharString>
          <CharString index="108">
            15 0 vhcurveto
            return
          </CharString>
          <CharString index="109">
            -70 -70 -60 -45 30 -30 45 20 20 5 0 vhcurveto
            160 vlineto
            return
          </CharString>
          <CharString index="110">
            645 hlineto
            -11 callgsubr
            return
          </CharString>
          <CharString index="111">
            31 -43 -55 17 -65 hhcurveto
            -165 -100 -100 -165 -86 32 -69 49 -46 hvcurveto
            -41 -49 rlineto
            35 hlineto
            27 32 rlineto
            return
          </CharString>
          <CharString index="112">
            0 20 50 45 vhcurveto
            -120 vlineto
            return
          </CharString>
          <CharString index="113">
            66 -21 150 -20 hstemhm
            return
          </CharString>
          <CharString index="114">
            -21 700 -20 return
          </CharString>
          <CharString index="115">
            195 195 return
          </CharString>
          <CharString index="116">
            vlineto
            -86 callsubr
            -15 255 vlineto
            240 130 130 220 220 -130 130 -240 hvcurveto
            return
          </CharString>
          <CharString index="117">
            -80 -30 rlineto
            -15 return
          </CharString>
          <CharString index="118">
            -65 -65 0 hvcurveto
            hintmask 11101110
            -20 35 -35 20 0 vvcurveto
            -25 -190 40 hlineto
            hintmask 11110110
            0 -7 callsubr
            return
          </CharString>
          <CharString index="119">
            -32 callsubr
            -45 return
          </CharString>
          <CharString index="120">
            58 callsubr
            45 33 36 -28 -93 17 vhcurveto
            -177 -213 rlineto
            -3 26 -1 29 34 vvcurveto
            return
          </CharString>
          <CharString index="121">
            90 -15 rmoveto
            65 60 60 205 10 hvcurveto
            20 425 rlineto
            190 -3 callgsubr
            return
          </CharString>
          <CharString index="122">
            hstemhm
            110 30 465 30 return
          </CharString>
          <CharString index="123">
            21 34 callsubr
            return
          </CharString>
          <CharString index="124">
            95 165 335 30 return
          </CharString>
          <CharString index="125">
            25 hstem
            -70 callsubr
            return
          </CharString>
          <CharString index="126">
            695 350 rmoveto
            120 -39 92 -59 62 vhcurveto
            58 76 rlineto
            -35 hlineto
            -43 -56 rlineto
            return
          </CharString>
          <CharString index="127">
            0 20 -75 95 vhcurveto
            90 15 hlineto
            -60 15 rlineto
            580 -80 callgsubr
            return
          </CharString>
          <CharString index="128">
            vlineto
            85 -80 80 -115 -90 -40 -65 0 vhcurveto
            return
          </CharString>
          <CharString index="129">
            -101 callgsubr
            445 150 return
          </CharString>
          <CharString index="130">
            90 90 175 175 -90 90 return
          </CharString>
          <CharString index="131">
            -200 25 -25 150 35 25 return
          </CharString>
          <CharString index="132">
            -70 callgsubr
            -2 callsubr
            return
          </CharString>
          <CharString index="133">
            -97 -15 42 callgsubr
            return
          </CharString>
          <CharString index="134">
            55 -35 35 -60 -45 -31 -30 -50 -14 vhcurveto
            return
          </CharString>
          <CharString index="135">
            0 25 250 25 -25 225 hstemhm
            100 -10 callgsubr
            165 return
          </CharString>
          <CharString index="136">
            13 -15 25 325 25 155 -20 195 25 -10 -20 hstemhm
            return
          </CharString>
          <CharString index="137">
            35 25 -24 -51 -49 -25 -26 -40 -19 -21 5 0 hvcurveto
            100 vlineto
            return
          </CharString>
          <CharString index="138">
            -20 -15 callgsubr
            return
          </CharString>
          <CharString index="139">
            -20 -9 callsubr
            return
          </CharString>
          <CharString index="140">
            81 -21 150 -20 hstemhm
            return
          </CharString>
          <CharString index="141">
            -21 480 20 -20 35 return
          </CharString>
          <CharString index="142">
            150 0 40 -25 90 return
          </CharString>
          <CharString index="143">
            25 hstemhm
            -70 callsubr
            return
          </CharString>
          <CharString index="144">
            62 callsubr
            hstemhm
            return
          </CharString>
          <CharString index="145">
            -104 callsubr
            195 vlineto
            return
          </CharString>
          <CharString index="146">
            20 60 18 callgsubr
            return
          </CharString>
          <CharString index="147">
            500 17 callgsubr
            return
          </CharString>
          <CharString index="148">
            vlineto
            0 20 -5 20 45 30 30 return
          </CharString>
          <CharString index="149">
            -20 15 callsubr
            return
          </CharString>
          <CharString index="150">
            150 160 return
          </CharString>
          <CharString index="151">
            hstemhm
            -12 callgsubr
            return
          </CharString>
          <CharString index="152">
            -107 -15 25 220 25 75 -13 callgsubr
            hstemhm
            return
          </CharString>
          <CharString index="153">
            -92 0 25 450 25 return
          </CharString>
          <CharString index="154">
            -2 0 25 650 25 return
          </CharString>
          <CharString index="155">
            235 235 return
          </CharString>
          <CharString index="156">
            hstemhm
            35 85 85 110 -95 95 -95 110 return
          </CharString>
          <CharString index="157">
            440 150 120 -20 hstem
            45 155 return
          </CharString>
          <CharString index="158">
            -30 15 0 hvcurveto
            160 vlineto
            return
          </CharString>
          <CharString index="159">
            348 11 -21 710 -20 return
          </CharString>
          <CharString index="160">
            40 -35 35 -60 vhcurveto
            return
          </CharString>
          <CharString index="161">
            -20 hstem
            -28 callsubr
            return
          </CharString>
          <CharString index="162">
            -130 -15 hlineto
            return
          </CharString>
          <CharString index="163">
            130 100 100 return
          </CharString>
          <CharString index="164">
            150 hstem
            45 return
          </CharString>
          <CharString index="165">
            195 50 50 return
          </CharString>
          <CharString index="166">
            21 -21 700 -3 callsubr
            return
          </CharString>
          <CharString index="167">
            -110 85 -60 0 vhcurveto
            30 195 hlineto
            return
          </CharString>
          <CharString index="168">
            345 rmoveto
            -45 400 45 vlineto
            endchar
          </CharString>
          <CharString index="169">
            -21 165 -20 return
          </CharString>
        <CharString name=".notdef">
          -352 endchar
        </CharString>
        <CharString name="A">
          -53 callsubr
          hstem
          -105 callgsubr
          endchar
        </CharString>
        <CharString name="AE">
          354 0 25 240 25 45 11 callgsubr
          hstemhm
          465 165 205 95 -75 95 hintmask 11111010
          465 30 rmoveto
          -86 callsubr
          -15 545 -59 callgsubr
          -225 310 105 hlineto
          10 -55 35 -45 0 vvcurveto
          30 225 -30 hlineto
          0 -35 -45 -10 -55 vhcurveto
          -105 315 hlineto
          hintmask 11111100
          205 hlineto
          -79 callsubr
          -514 hlineto
          -366 -655 10 callsubr
          191 15 vlineto
          -75 30 122 220 rlineto
          257 hlineto
          -27 410 rmoveto
          27 -385 -242 hlineto
          endchar
        </CharString>
        <CharString name="Aacute">
          -53 callsubr
          33 callsubr
          hintmask 11100000
          -105 callgsubr
          hintmask 00011000
          204 670 -100 callsubr
        </CharString>
        <CharString name="Abreve">
          -53 callsubr
          65 -8 callsubr
          200 -1 callsubr
          hintmask 11100000
          -105 callgsubr
          hintmask 00010110
          184 545 -45 callgsubr
          hintmask 00001110
          -105 callsubr
          hintmask 00010110
          -52 callsubr
        </CharString>
        <CharString name="Acircumflex">
          -53 callsubr
          71 37 callsubr
          hintmask 11100000
          -105 callgsubr
          hintmask 00011000
          44 510 -102 callsubr
        </CharString>
        <CharString name="Adieresis">
          -53 callsubr
          70 140 hstemhm
          192 -20 callgsubr
          hintmask 11100000
          -105 callgsubr
          hintmask 00011100
          26 600 rmoveto
          -107 callgsubr
          185 hmoveto
          -107 callgsubr
          endchar
        </CharString>
        <CharString name="Agrave">
          -53 callsubr
          33 callsubr
          hintmask 11100000
          -105 callgsubr
          hintmask 00011000
          34 670 -84 callsubr
        </CharString>
        <CharString name="Amacron">
          -53 callsubr
          94 45 hstemhm
          hintmask 11100000
          -105 callgsubr
          hintmask 00010000
          324 554 -39 callsubr
        </CharString>
        <CharString name="Aogonek">
          43 -190 25 186 -31 callsubr
          hstem
          520 85 vstem
          -87 callsubr
          74 hlineto
          -12 -3 -122 -31 -81 vvcurveto
          -78 callgsubr
          43 callgsubr
          15 vlineto
          -50 -12 callsubr
          680 rlineto
          -30 hlineto
          -275 -665 10 callsubr
          185 15 vlineto
          110 478 rmoveto
          110 -263 rlineto
          -219 hlineto
          endchar
        </CharString>
        <CharString name="Aring">
          -53 callsubr
          150 35 hstem
          245 50 110 50 vstem
          -87 callsubr
          120 -14 callsubr
          -272 648 rlineto
          45 12 32 39 46 vvcurveto
          55 -45 45 -60 -60 -45 -45 -55 -46 31 -39 46 -12 vhcurveto
          -262 -633 10 callsubr
          185 15 vlineto
          110 478 rmoveto
          110 -263 rlineto
          -219 hlineto
          239 545 rmoveto
          -40 -25 -25 -30 -30 -25 25 40 40 25 25 30 30 25 -25 -40 vhcurveto
          endchar
        </CharString>
        <CharString name="Atilde">
          -53 callsubr
          75 -4 callsubr
          hintmask 11100000
          -105 callgsubr
          hintmask 00001000
          236 535 -74 callsubr
        </CharString>
        <CharString name="B">
          43 0 25 330 25 295 36 callsubr
          55 callgsubr
          -135 135 -135 170 hintmask 11110010
          110 670 rmoveto
          -79 callgsubr
          290 vlineto
          230 80 80 110 180 -270 0 0 hvcurveto
          hintmask 11110100
          0 235 0 155 vvcurveto
          95 -80 80 -215 vhcurveto
          -270 -15 hlineto
          290 -330 rmoveto
          80 60 -60 -105 -105 -60 -60 -80 hvcurveto
          -65 330 hlineto
          320 vmoveto
          45 hlineto
          hintmask 11111000
          65 60 -60 -90 -85 -60 -60 -65 hvcurveto
          -45 hlineto
          endchar
        </CharString>
        <CharString name="C">
          -16 callgsubr
          9 callgsubr
          370 25 hintmask 11101100
          -96 callsubr
          hintmask 11011100
          -85 callsubr
          hintmask 11101100
          0 -65 65 -94 vhcurveto
          endchar
        </CharString>
        <CharString name="Cacute">
          -16 callgsubr
          86 -21 150 -20 9 callgsubr
          370 25 hintmask 11100011
          -96 callsubr
          hintmask 11010011
          -85 callsubr
          hintmask 11100011
          0 -65 65 -94 vhcurveto
          hintmask 00001100
          1 185 -100 callsubr
        </CharString>
        <CharString name="Ccaron">
          -16 callgsubr
          101 -21 150 -20 9 callgsubr
          370 25 hintmask 11100011
          -96 callsubr
          hintmask 11010011
          -85 callsubr
          hintmask 11100011
          0 -65 65 -94 vhcurveto
          hintmask 00001100
          136 200 -95 callsubr
        </CharString>
        <CharString name="Ccedilla">
          13 -200 25 -25 150 35 -4 callgsubr
          9 callgsubr
          118 130 -75 75 122 25 hintmask 1011101101000000
          361 715 rmoveto
          -186 -49 callsubr
          -235 -217 110 -128 183 -17 hvcurveto
          -63 vlineto
          hintmask 1011101011000000
          35 20 -20 -30 -30 -20 -20 -30 -20 -16 10 0 hvcurveto
          -30 vlineto
          0 26 -5 30 70 35 35 40 vhcurveto
          hintmask 0111101101000000
          53 callsubr
          35 12 vlineto
          56 callsubr
          115 hvcurveto
          -25 hlineto
          -100 -90 -90 -95 -105 -80 80 -76 callgsubr
          vhcurveto
          40 hlineto
          hintmask 1011011101000000
          -85 callsubr
          hintmask 1011101101000000
          0 -65 65 -94 vhcurveto
          endchar
        </CharString>
        <CharString name="Ccircumflex">
          -16 callgsubr
          101 37 callsubr
          45 175 370 25 hintmask 11100011
          -96 callsubr
          hintmask 11010011
          -85 callsubr
          hintmask 11100011
          0 -65 65 -94 vhcurveto
          hintmask 00001100
          -159 50 -102 callsubr
        </CharString>
        <CharString name="Cdotaccent">
          -16 callgsubr
          90 140 9 callgsubr
          67 140 163 25 hintmask 11100101
          -96 callsubr
          hintmask 11010101
          -85 callsubr
          hintmask 11100101
          0 -65 65 -94 vhcurveto
          hintmask 00001010
          -74 130 rmoveto
          -107 callgsubr
          endchar
        </CharString>
        <CharString name="D">
          78 0 25 650 18 callsubr
          225 175 vstem
          -42 callgsubr
          endchar
        </CharString>
        <CharString name="Dcaron">
          78 0 25 650 25 81 -6 callsubr
          225 175 hintmask 11001100
          -42 callgsubr
          hintmask 00110000
          207 235 -95 callsubr
        </CharString>
        <CharString name="Dcroat">
          83 -66 callgsubr
        </CharString>
        <CharString name="E">
          -52 callgsubr
          -33 callsubr
          hintmask 11111000
          -99 callsubr
          vlineto
          hintmask 11110100
          -99 callgsubr
          endchar
        </CharString>
        <CharString name="Eacute">
          -52 callgsubr
          71 46 callgsubr
          -75 95 hintmask 11100110
          -99 callsubr
          vlineto
          hintmask 11100101
          -99 callgsubr
          hintmask 00011000
          -53 540 -100 callsubr
        </CharString>
        <CharString name="Ebreve">
          -52 callgsubr
          70 -8 callsubr
          -70 callsubr
          -83 -1 callsubr
          -2 95 -75 95 hintmask 1110010010000000
          -99 callsubr
          vlineto
          hintmask 1110010001000000
          -99 callgsubr
          hintmask 0001001100000000
          -48 430 -45 callgsubr
          hintmask 0000101100000000
          -105 callsubr
          hintmask 0001001100000000
          -52 callsubr
        </CharString>
        <CharString name="Ecaron">
          -52 callgsubr
          81 46 callgsubr
          -75 95 hintmask 11100110
          -99 callsubr
          vlineto
          hintmask 11100101
          -99 callgsubr
          hintmask 00011000
          107 550 -95 callsubr
        </CharString>
        <CharString name="Ecircumflex">
          -52 callgsubr
          81 -21 165 -20 -33 callsubr
          hintmask 11100110
          -99 callsubr
          vlineto
          hintmask 11100101
          -99 callgsubr
          hintmask 00011000
          -193 400 -102 callsubr
        </CharString>
        <CharString name="Edieresis">
          -52 callgsubr
          70 140 hstemhm
          -70 callsubr
          -95 -20 callgsubr
          -15 95 -75 95 hintmask 1110100100000000
          -99 callsubr
          vlineto
          hintmask 1110100010000000
          -99 callgsubr
          hintmask 0001011000000000
          -210 480 rmoveto
          -107 callgsubr
          185 hmoveto
          -107 callgsubr
          endchar
        </CharString>
        <CharString name="Edotaccent">
          -52 callgsubr
          70 140 hstemhm
          -70 callsubr
          7 140 68 95 -75 95 hintmask 11101010
          -99 callsubr
          vlineto
          hintmask 11101001
          -99 callgsubr
          hintmask 00010100
          -108 480 rmoveto
          -107 callgsubr
          endchar
        </CharString>
        <CharString name="Egrave">
          -52 callgsubr
          71 46 callgsubr
          -75 95 hintmask 11100110
          -99 callsubr
          vlineto
          hintmask 11100101
          -99 callgsubr
          hintmask 00011000
          -173 540 -84 callsubr
        </CharString>
        <CharString name="Emacron">
          -52 callgsubr
          94 45 -33 callsubr
          hintmask 11101100
          -99 callsubr
          vlineto
          hintmask 11101010
          -99 callgsubr
          hintmask 00010000
          92 434 -39 callsubr
        </CharString>
        <CharString name="Eogonek">
          8 -190 25 165 -37 callgsubr
          hstemhm
          110 165 -10 85 140 95 -75 95 hintmask 11111010
          110 670 rmoveto
          -79 callgsubr
          349 vlineto
          hintmask 11110101
          -12 -3 -122 -31 -81 vvcurveto
          -78 callgsubr
          43 callgsubr
          160 180 -30 hlineto
          0 -65 -50 -105 vvcurveto
          hintmask 11111010
          -235 310 115 hlineto
          10 -55 35 -45 0 vvcurveto
          30 225 -30 hlineto
          0 -35 -45 -10 -55 vhcurveto
          -115 315 215 hlineto
          -79 callsubr
          -535 -15 hlineto
          endchar
        </CharString>
        <CharString name="Eth">
          78 -66 callgsubr
        </CharString>
        <CharString name="Euro">
          58 -15 25 260 30 90 30 95 -20 195 25 -10 -20 hstemhm
          90 178 367 25 hintmask 11111011
          20 420 rmoveto
          -30 71 vlineto
          0 -1 -25 -15 vvcurveto
          -15 1 -35 0 vhcurveto
          -81 -30 85 hlineto
          -185 27 123 -100 185 hhcurveto
          56 callsubr
          115 hvcurveto
          -25 hlineto
          -100 -90 -90 -95 -94 -73 63 197 -15 vhcurveto
          187 30 -190 90 200 30 -198 hlineto
          204 14 71 66 73 hhcurveto
          -61 callgsubr
          hvcurveto
          40 hlineto
          hintmask 11110111
          -85 callsubr
          hintmask 11111011
          0 -65 65 -94 -166 -122 -105 -190 -24 vhcurveto
          endchar
        </CharString>
        <CharString name="F">
          -27 21 -21 335 25 315 18 callsubr
          215 95 vstem
          -99 callsubr
          285 15 vlineto
          -60 15 rlineto
          305 115 vlineto
          10 -55 35 -45 0 vvcurveto
          30 225 -30 hlineto
          0 -35 -45 -10 -55 vhcurveto
          endchar
        </CharString>
        <CharString name="G">
          63 -15 -16 callsubr
          9 callgsubr
          235 165 hintmask 10110110
          365 20 rmoveto
          -75 -70 70 -76 callgsubr
          hvcurveto
          40 hlineto
          hintmask 10101110
          -85 callsubr
          hintmask 10110110
          0 -65 65 -94 -186 -49 callsubr
          -235 -235 130 -130 150 -25 callgsubr
          hintmask 01110110
          -65 callsubr
          hintmask 10110110
          -48 callgsubr
          vhcurveto
          endchar
        </CharString>
        <CharString name="Gbreve">
          63 -15 -16 callsubr
          85 -8 callsubr
          45 175 -20 -1 callsubr
          -45 165 hintmask 1011000100100000
          365 20 rmoveto
          -75 -70 70 -76 callgsubr
          hvcurveto
          40 hlineto
          hintmask 1010100100100000
          -85 callsubr
          hintmask 1011000100100000
          0 -65 65 -94 -186 -49 callsubr
          -235 -235 130 -130 150 -25 callgsubr
          hintmask 0111000100100000
          -65 callsubr
          hintmask 1011000100100000
          -48 callgsubr
          vhcurveto
          hintmask 0000010011000000
          -15 770 -45 callgsubr
          hintmask 0000001011000000
          -105 callsubr
          hintmask 0000010011000000
          -52 callsubr
        </CharString>
        <CharString name="Gcircumflex">
          63 -15 -16 callsubr
          106 37 callsubr
          45 175 235 165 hintmask 1011000110000000
          365 20 rmoveto
          -75 -70 70 -76 callgsubr
          hvcurveto
          40 hlineto
          hintmask 1010100110000000
          -85 callsubr
          62 callgsubr
          -65 65 -94 -186 -49 callsubr
          -235 -235 130 -130 150 -25 callgsubr
          hintmask 0111000110000000
          -65 callsubr
          62 callgsubr
          -30 -80 -60 vhcurveto
          hintmask 0000011000000000
          -155 750 -102 callsubr
        </CharString>
        <CharString name="Gcommaaccent">
          63 -289 -30 callsubr
          45 -16 callsubr
          9 callgsubr
          62 145 28 165 hintmask 0010110101000000
          365 20 rmoveto
          -75 -70 70 -76 callgsubr
          hvcurveto
          40 hlineto
          hintmask 0010101101000000
          -85 callsubr
          hintmask 0010110101000000
          0 -65 65 -94 -186 -49 callsubr
          -235 -235 130 -130 150 -25 callgsubr
          hintmask 0001110101000000
          -65 callsubr
          hintmask 0010110101000000
          -48 callgsubr
          vhcurveto
          hintmask 1100000010000000
          -48 -330 -106 callgsubr
        </CharString>
        <CharString name="Gdotaccent">
          63 -15 -16 callsubr
          90 140 9 callgsubr
          65 140 30 165 hintmask 1011001010000000
          365 20 rmoveto
          -75 -70 70 -76 callgsubr
          hvcurveto
          40 hlineto
          hintmask 1010101010000000
          -85 callsubr
          hintmask 1011001010000000
          0 -65 65 -94 -186 -49 callsubr
          -235 -235 130 -130 150 -25 callgsubr
          hintmask 0111001010000000
          -65 callsubr
          hintmask 1011001010000000
          -48 callgsubr
          vhcurveto
          hintmask 0000010100000000
          -80 825 rmoveto
          -107 callgsubr
          endchar
        </CharString>
        <CharString name="H">
          27 callgsubr
          hstem
          110 165 215 165 vstem
          110 -31 callgsubr
          305 215 -305 -101 callsubr
          60 -15 rlineto
          -310 -215 310 vlineto
          -11 callgsubr
          -285 -15 vlineto
          endchar
        </CharString>
        <CharString name="Hcircumflex">
          27 callgsubr
          106 -21 165 -23 callsubr
          215 165 hintmask 11100110
          110 -31 callgsubr
          305 215 -305 -101 callsubr
          60 -15 rlineto
          -310 -215 310 vlineto
          -11 callgsubr
          -285 -15 vlineto
          hintmask 00011000
          187 80 -102 callsubr
        </CharString>
        <CharString name="I">
          -252 59 callsubr
          vstem
          110 670 rmoveto
          -640 -101 callsubr
          endchar
        </CharString>
        <CharString name="Iacute">
          -36 callgsubr
          157 215 -100 callsubr
        </CharString>
        <CharString name="Ibreve">
          -30 callgsubr
          85 -8 callsubr
          45 95 -30 165 -25 95 hintmask 11000100
          110 670 rmoveto
          -640 -101 callsubr
          hintmask 00101010
          145 100 -45 callgsubr
          hintmask 00011010
          -105 callsubr
          hintmask 00101010
          -52 callsubr
        </CharString>
        <CharString name="Icircumflex">
          -30 callgsubr
          106 -21 165 -23 callsubr
          hintmask 11001000
          110 670 rmoveto
          -640 -101 callsubr
          hintmask 00110000
          -3 80 -102 callsubr
        </CharString>
        <CharString name="Idieresis">
          -30 callgsubr
          95 140 hstemhm
          30 140 -60 165 -60 140 hintmask 11001000
          110 670 rmoveto
          -640 -101 callsubr
          hintmask 00110100
          -20 160 rmoveto
          -107 callgsubr
          185 hmoveto
          -107 callgsubr
          endchar
        </CharString>
        <CharString name="Idotaccent">
          -30 callgsubr
          90 140 hstemhm
          -70 callsubr
          -153 140 hintmask 11010000
          110 670 rmoveto
          -640 -101 callsubr
          hintmask 00101000
          72 155 rmoveto
          -107 callgsubr
          endchar
        </CharString>
        <CharString name="Igrave">
          -36 callgsubr
          -3 215 -84 callsubr
        </CharString>
        <CharString name="Imacron">
          -30 callgsubr
          100 45 hstemhm
          -70 callsubr
          hintmask 11010000
          110 670 rmoveto
          -640 -101 callsubr
          hintmask 00100000
          270 95 -39 callsubr
        </CharString>
        <CharString name="Iogonek">
          -252 -190 25 186 7 callsubr
          hstemhm
          95 85 -70 70 -70 165 hintmask 11101000
          110 670 rmoveto
          -79 callgsubr
          179 vlineto
          hintmask 11110000
          -12 -3 -122 -31 -81 vvcurveto
          -78 callgsubr
          vhcurveto
          hintmask 11100100
          43 callgsubr
          60 15 hlineto
          -60 15 rlineto
          640 vlineto
          -11 callgsubr
          -285 -15 vlineto
          endchar
        </CharString>
        <CharString name="Itilde">
          -262 -26 callsubr
          95 -4 callsubr
          105 165 hintmask 11000100
          105 670 rmoveto
          -640 -101 callsubr
          hintmask 00010000
          190 90 -83 callgsubr
        </CharString>
        <CharString name="J">
          -61 callsubr
        </CharString>
        <CharString name="Jcircumflex">
          -87 -15 20 -20 185 530 -20 101 37 callsubr
          0 115 170 165 hintmask 10100110
          165 5 rmoveto
          -30 -20 10 0 hvcurveto
          150 vlineto
          hintmask 01100110
          -50 callgsubr
          -55 55 -55 130 185 80 80 135 vhcurveto
          470 -72 callgsubr
          -470 vlineto
          hintmask 10100110
          -145 -50 -50 -70 vhcurveto
          hintmask 00011000
          52 755 -102 callsubr
        </CharString>
        <CharString name="K">
          53 59 callsubr
          vstem
          -58 callsubr
          endchar
        </CharString>
        <CharString name="Kcommaaccent">
          53 -264 -30 callsubr
          56 -21 700 -23 callsubr
          30 145 hintmask 00111000
          -58 callsubr
          hintmask 11000100
          -360 -300 -106 callgsubr
        </CharString>
        <CharString name="L">
          -27 0 25 675 -3 callsubr
          215 95 vstem
          -80 callsubr
          endchar
        </CharString>
        <CharString name="Lacute">
          -27 0 25 675 -20 91 46 callgsubr
          hintmask 11001100
          -80 callsubr
          hintmask 00110000
          -135 200 -100 callsubr
        </CharString>
        <CharString name="Lcaron">
          -27 0 25 445 -30 callsubr
          1 -23 callsubr
          92 145 -22 95 hintmask 10011010
          -80 callsubr
          hintmask 01100100
          67 -251 -106 callgsubr
        </CharString>
        <CharString name="Lcommaaccent">
          -27 -284 -30 callsubr
          55 25 675 -23 callsubr
          7 145 63 95 hintmask 00111010
          -80 callsubr
          hintmask 11000100
          -18 -1005 -106 callgsubr
        </CharString>
        <CharString name="Ldot">
          -27 0 25 255 140 280 -23 callsubr
          70 140 5 95 hintmask 10110100
          -80 callsubr
          hintmask 01001000
          10 -350 rmoveto
          -107 callgsubr
          endchar
        </CharString>
        <CharString name="Lslash">
          -17 0 25 675 -20 hstem
          120 165 215 95 vstem
          60 24 callgsubr
          -319 vlineto
          -85 -51 rlineto
          -35 vlineto
          85 51 rlineto
          -286 vlineto
          -86 callsubr
          -15 535 -59 callgsubr
          -215 391 hlineto
          80 49 rlineto
          35 vlineto
          -80 -49 rlineto
          219 vlineto
          -11 callgsubr
          vlineto
          endchar
        </CharString>
        <CharString name="M">
          -27 callgsubr
          -125 -15 hlineto
          60 -47 callgsubr
        </CharString>
        <CharString name="N">
          103 6 -21 36 -21 700 42 callsubr
          hintmask 01111000
          -87 callgsubr
          hintmask 10111000
          -66 callsubr
          endchar
        </CharString>
        <CharString name="Nacute">
          23 callgsubr
          81 -21 150 42 callsubr
          hintmask 01100110
          -87 callgsubr
          hintmask 10100110
          -66 callsubr
          hintmask 00011000
          -228 235 -100 callsubr
        </CharString>
        <CharString name="Ncaron">
          23 callgsubr
          81 -21 150 42 callsubr
          hintmask 01100110
          -87 callgsubr
          hintmask 10100110
          -66 callsubr
          hintmask 00011000
          -78 235 -95 callsubr
        </CharString>
        <CharString name="Ncommaaccent">
          103 -224 -30 callsubr
          1 -21 36 41 callgsubr
          -10 callgsubr
          160 30 hintmask 00011101
          -87 callgsubr
          hintmask 00101101
          -66 callsubr
          hintmask 11000010
          -270 -900 -106 callgsubr
        </CharString>
        <CharString name="Ntilde">
          23 callgsubr
          85 70 -20 20 -20 70 15 callsubr
          hintmask 01100011
          -87 callgsubr
          hintmask 10100011
          -66 callsubr
          hintmask 00001000
          -165 110 -74 callsubr
        </CharString>
        <CharString name="O">
          -15 callsubr
          hstem
          -7 callsubr
          300 175 vstem
          520 350 rmoveto
          -265 -80 -80 -70 -70 -80 80 265 265 80 80 70 70 80 -80 -265 vhcurveto
          175 hmoveto
          -41 callsubr
          -195 40 callgsubr
          -235 130 -130 8 callsubr
          130 130 235 vhcurveto
          endchar
        </CharString>
        <CharString name="OE">
          348 -50 callsubr
          9 callgsubr
          240 165 205 95 -75 95 hintmask 11111010
          415 700 rmoveto
          -240 -49 callsubr
          -220 -220 130 -130 240 hvcurveto
          530 180 -30 hlineto
          0 -65 -50 -105 vvcurveto
          -225 310 105 hlineto
          10 -55 35 -45 0 vvcurveto
          30 225 -30 hlineto
          0 -35 -45 -10 -55 vhcurveto
          -105 315 hlineto
          hintmask 11111100
          205 hlineto
          -79 callsubr
          hlineto
          -465 -25 rmoveto
          -650 -45 vlineto
          -115 -80 80 245 245 80 80 115 hvcurveto
          endchar
        </CharString>
        <CharString name="Oacute">
          -63 callgsubr
          -310 550 -100 callsubr
        </CharString>
        <CharString name="Obreve">
          -15 callsubr
          50 -8 callsubr
          45 175 0 -1 callsubr
          0 175 hintmask 11001001
          520 350 rmoveto
          -265 -80 -80 -70 -70 -80 80 265 265 80 80 70 70 80 -80 -265 vhcurveto
          175 hmoveto
          -41 callsubr
          -195 40 callgsubr
          -235 130 -130 8 callsubr
          130 130 235 vhcurveto
          hintmask 00100110
          -325 435 -45 callgsubr
          hintmask 00010110
          -105 callsubr
          hintmask 00100110
          -52 callsubr
        </CharString>
        <CharString name="Ocircumflex">
          -15 callsubr
          71 -21 165 -59 callsubr
          -470 415 -102 callsubr
        </CharString>
        <CharString name="Odieresis">
          -15 callsubr
          60 140 9 callgsubr
          -13 -20 callgsubr
          -12 175 hintmask 11010010
          520 350 rmoveto
          -265 -80 -80 -70 -70 -80 80 265 265 80 80 70 70 80 -80 -265 vhcurveto
          175 hmoveto
          -41 callsubr
          -195 40 callgsubr
          -235 130 -130 8 callsubr
          130 130 235 vhcurveto
          hintmask 00101100
          -488 495 rmoveto
          -107 callgsubr
          185 hmoveto
          -107 callgsubr
          endchar
        </CharString>
        <CharString name="Ograve">
          -63 callgsubr
          -470 550 -84 callsubr
        </CharString>
        <CharString name="Ohungarumlaut">
          -15 callsubr
          40 150 9 callgsubr
          300 175 hintmask 11011000
          520 350 rmoveto
          -265 -80 -80 -70 -70 -80 80 265 265 80 80 70 70 80 -80 -265 vhcurveto
          175 hmoveto
          -41 callsubr
          -195 40 callgsubr
          -235 130 -130 8 callsubr
          130 130 235 vhcurveto
          hintmask 00100000
          -368 555 -68 callsubr
        </CharString>
        <CharString name="Omacron">
          -15 callsubr
          80 45 9 callgsubr
          300 175 hintmask 11011000
          520 350 rmoveto
          -265 -80 -80 -70 -70 -80 80 265 265 80 80 70 70 80 -80 -265 vhcurveto
          175 hmoveto
          -41 callsubr
          -195 40 callgsubr
          -235 130 -130 8 callsubr
          130 130 235 vhcurveto
          hintmask 00100000
          -195 445 -39 callsubr
        </CharString>
        <CharString name="Oslash">
          103 -15 20 16 -21 695 20 -15 -20 9 callgsubr
          300 175 hintmask 10011100
          19 callsubr
          hintmask 01101100
          0 callsubr
          hintmask 10101100
          -55 callsubr
          endchar
        </CharString>
        <CharString name="Oslashacute">
          103 -15 20 16 -21 695 20 -15 -20 91 -21 150 -20 9 callgsubr
          300 175 hintmask 10010011
          19 callsubr
          hintmask 01100011
          0 callsubr
          hintmask 10100011
          -55 callsubr
          hintmask 00001100
          155 550 -100 callsubr
        </CharString>
        <CharString name="Otilde">
          -15 callsubr
          60 -4 callsubr
          45 175 300 175 hintmask 11000110
          520 350 rmoveto
          -265 -80 -80 -70 -70 -80 80 265 265 80 80 70 70 80 -80 -265 vhcurveto
          175 hmoveto
          -41 callsubr
          -195 40 callgsubr
          -235 130 -130 8 callsubr
          130 130 235 vhcurveto
          hintmask 00010000
          -273 425 -83 callgsubr
        </CharString>
        <CharString name="P">
          38 21 -21 270 25 380 18 callsubr
          195 170 vstem
          275 295 rmoveto
          380 55 vlineto
          80 60 -60 -49 callsubr
          -60 -60 -80 hvcurveto
          -25 vmoveto
          230 80 80 135 135 -80 80 -230 hvcurveto
          -280 -15 hlineto
          -86 callgsubr
          -640 -93 callsubr
          240 vlineto
          endchar
        </CharString>
        <CharString name="Q">
          103 -170 30 -30 175 690 20 9 callgsubr
          70 160 70 175 cntrmask 00011100
          hintmask 10111100
          695 350 rmoveto
          -41 callsubr
          -195 40 callgsubr
          -200 95 -125 150 -30 vhcurveto
          -95 70 -70 110 50 20 1 callsubr
          -10 25 rlineto
          0 -10 -10 -20 -25 -25 25 110 vhcurveto
          150 31 95 124 200 vvcurveto
          -175 hmoveto
          hintmask 01111100
          -265 -80 -80 -70 -70 -80 80 265 265 80 80 70 70 80 -80 -265 vhcurveto
          endchar
        </CharString>
        <CharString name="R">
          63 21 -21 310 25 340 18 callsubr
          190 170 vstem
          -94 callgsubr
          endchar
        </CharString>
        <CharString name="Racute">
          63 21 -21 310 25 340 25 71 -6 callsubr
          190 170 hintmask 11100110
          -94 callgsubr
          hintmask 00011000
          32 565 -100 callsubr
        </CharString>
        <CharString name="Rcaron">
          63 21 -21 310 25 340 25 81 -6 callsubr
          190 170 hintmask 11100110
          -94 callgsubr
          hintmask 00011000
          182 575 -95 callsubr
        </CharString>
        <CharString name="Rcommaaccent">
          63 -264 -30 callsubr
          56 -21 310 25 340 36 callsubr
          38 145 7 170 hintmask 00111101
          -94 callgsubr
          hintmask 11000010
          33 -620 -106 callgsubr
        </CharString>
        <CharString name="S">
          -75 callsubr
        </CharString>
        <CharString name="Sacute">
          -29 callgsubr
          86 -21 150 -92 callgsubr
          27 890 -100 callsubr
        </CharString>
        <CharString name="Scaron">
          -29 callgsubr
          101 -21 150 -92 callgsubr
          167 905 -95 callsubr
        </CharString>
        <CharString name="Scedilla">
          -42 -200 25 -25 150 35 1 callgsubr
          hstemhm
          50 170 58 130 -75 75 -8 170 hintmask 1010110110000000
          275 10 rmoveto
          -155 -45 175 0 hvcurveto
          -40 hlineto
          hintmask 1001110110000000
          -46 callsubr
          0 58 -58 105 -6 vhcurveto
          -61 vlineto
          hintmask 1010110101000000
          35 20 -20 -30 -30 -20 -20 -30 -20 -16 10 0 hvcurveto
          -30 vlineto
          0 26 -5 30 70 35 35 40 vhcurveto
          hintmask 0110110100100000
          53 callsubr
          35 vlineto
          172 6 85 87 102 220 -350 10 170 vvcurveto
          65 45 45 50 -35 callgsubr
          hintmask 1010101110000000
          -85 callsubr
          hintmask 1010110100100000
          0 -65 65 -95 -165 -80 -80 -95 vhcurveto
          -240 350 -10 -155 vvcurveto
          -75 -50 -50 -75 vhcurveto
          endchar
        </CharString>
        <CharString name="Scircumflex">
          -29 callgsubr
          111 -21 165 -92 callgsubr
          -118 765 -102 callsubr
        </CharString>
        <CharString name="Scommaaccent">
          -42 -284 -30 callsubr
          40 1 callgsubr
          hstemhm
          45 170 28 145 12 170 hintmask 0010110101000000
          275 10 rmoveto
          -155 -45 175 0 hvcurveto
          -40 hlineto
          hintmask 0001110101000000
          -46 callsubr
          hintmask 0010110101000000
          -83 callsubr
          hintmask 0010101101000000
          -85 callsubr
          hintmask 0010110101000000
          0 -65 65 -95 -165 -80 -80 -95 vhcurveto
          -240 355 -10 -155 vvcurveto
          -75 -50 -50 -75 vhcurveto
          hintmask 1100000010000000
          3 -315 -106 callgsubr
        </CharString>
        <CharString name="T">
          -56 callgsubr
        </CharString>
        <CharString name="Tcaron">
          -2 21 -21 520 180 -25 25 33 callsubr
          25 95 115 165 115 95 cntrmask 00000111
          hintmask 10100111
          460 hmoveto
          -100 callgsubr
          645 115 vlineto
          hintmask 11000111
          -79 callsubr
          -585 -180 30 hlineto
          hintmask 10100111
          -21 callsubr
          hintmask 00011000
          287 910 -95 callsubr
        </CharString>
        <CharString name="Tcommaaccent">
          -2 -284 -30 callsubr
          76 -21 520 180 -25 25 hstemhm
          25 95 115 165 -155 145 125 95 hintmask 0010111010000000
          460 hmoveto
          -100 callgsubr
          645 115 vlineto
          hintmask 0011011010000000
          -79 callsubr
          -585 -180 30 hlineto
          hintmask 0010111010000000
          -21 callsubr
          hintmask 1100000100000000
          105 -305 -106 callgsubr
        </CharString>
        <CharString name="Thorn">
          63 0 115 -25 25 470 25 -25 115 hstemhm
          -70 callsubr
          220 175 hintmask 10101100
          275 610 rmoveto
          60 vlineto
          -71 callsubr
          hintmask 10011100
          -77 callsubr
          285 15 vlineto
          -60 15 rlineto
          hintmask 01101100
          60 45 vlineto
          240 -40 callgsubr
          150 150 -110 110 -240 hvcurveto
          -45 -25 rmoveto
          45 hlineto
          95 80 -80 -155 -155 -80 -80 -95 hvcurveto
          -45 hlineto
          endchar
        </CharString>
        <CharString name="U">
          -2 callgsubr
          hstem
          17 callsubr
          vstem
          -107 callsubr
          endchar
        </CharString>
        <CharString name="Uacute">
          -2 callgsubr
          91 -21 150 -20 4 callgsubr
          hintmask 11001100
          -107 callsubr
          hintmask 00110000
          -185 245 -100 callsubr
        </CharString>
        <CharString name="Ubreve">
          -2 callgsubr
          75 -8 callsubr
          95 165 -10 -1 callsubr
          45 30 hintmask 11001001
          -107 callsubr
          hintmask 00100110
          -195 120 -45 callgsubr
          hintmask 00010110
          -105 callsubr
          hintmask 00100110
          -52 callsubr
        </CharString>
        <CharString name="Ucircumflex">
          -2 callgsubr
          101 -21 165 -20 4 callgsubr
          hintmask 11001100
          -107 callsubr
          hintmask 00110000
          -335 105 -102 callsubr
        </CharString>
        <CharString name="Udieresis">
          -2 callgsubr
          90 140 hstemhm
          95 165 -28 -20 callgsubr
          38 30 hintmask 11010010
          -107 callsubr
          hintmask 00101100
          -363 185 rmoveto
          -107 callgsubr
          185 hmoveto
          -107 callgsubr
          endchar
        </CharString>
        <CharString name="Ugrave">
          -2 callgsubr
          91 -21 150 -20 4 callgsubr
          hintmask 11001100
          -107 callsubr
          hintmask 00110000
          -325 245 -84 callsubr
        </CharString>
        <CharString name="Uhungarumlaut">
          -2 callgsubr
          75 150 4 callgsubr
          hintmask 11011000
          -107 callsubr
          hintmask 00100000
          -240 250 -68 callsubr
        </CharString>
        <CharString name="Umacron">
          -2 callgsubr
          104 45 4 callgsubr
          hintmask 11011000
          -107 callsubr
          hintmask 00100000
          -60 129 -39 callsubr
        </CharString>
        <CharString name="Uogonek">
          73 -190 25 150 56 callgsubr
          hstem
          95 165 35 85 215 30 vstem
          595 250 rmoveto
          -150 -90 -90 -90 -95 -60 60 180 vhcurveto
          420 -72 callgsubr
          -420 vlineto
          -162 96 -99 193 -4 vhcurveto
          -39 -16 -50 -32 -52 vvcurveto
          -78 callgsubr
          70 62 39 23 12 vhcurveto
          94 29 66 91 134 vvcurveto
          -71 callgsubr
          endchar
        </CharString>
        <CharString name="Uring">
          -2 callgsubr
          50 35 130 35 hstemhm
          95 165 50 50 110 50 75 30 hintmask 11001001
          -107 callsubr
          hintmask 00110110
          -75 175 -72 callsubr
        </CharString>
        <CharString name="Utilde">
          -2 callgsubr
          85 70 -20 20 -20 70 4 callgsubr
          hintmask 11000110
          -107 callsubr
          hintmask 00010000
          -143 110 -83 callgsubr
        </CharString>
        <CharString name="V">
          28 11 -21 710 -20 hstem
          412 212 rmoveto
          -177 403 rlineto
          45 -20 -40 40 -75 hhcurveto
          -120 3 callgsubr
          300 -680 rlineto
          30 hlineto
          245 665 80 30 rlineto
          15 -185 -22 callgsubr
          rlineto
          endchar
        </CharString>
        <CharString name="W">
          52 callsubr
          hstem
          -98 callsubr
          endchar
        </CharString>
        <CharString name="Wacute">
          52 callsubr
          91 -21 150 -20 hstemhm
          hintmask 11000000
          -98 callsubr
          hintmask 00110000
          467 225 -100 callsubr
        </CharString>
        <CharString name="Wcircumflex">
          52 callsubr
          111 37 callsubr
          hintmask 11000000
          -98 callsubr
          hintmask 00110000
          317 95 -102 callsubr
        </CharString>
        <CharString name="Wdieresis">
          52 callsubr
          90 140 hstemhm
          335 -20 callgsubr
          hintmask 11000000
          -98 callsubr
          hintmask 00111000
          300 165 rmoveto
          -107 callgsubr
          185 hmoveto
          -107 callgsubr
          endchar
        </CharString>
        <CharString name="Wgrave">
          52 callsubr
          91 -21 150 -20 hstemhm
          hintmask 11000000
          -98 callsubr
          hintmask 00110000
          297 225 -84 callsubr
        </CharString>
        <CharString name="X">
          -64 callsubr
        </CharString>
        <CharString name="Y">
          36 callgsubr
          hstem
          255 165 vstem
          -91 callgsubr
          endchar
        </CharString>
        <CharString name="Yacute">
          36 callgsubr
          91 -21 150 -20 hstemhm
          255 165 hintmask 11001000
          -91 callgsubr
          hintmask 00110000
          307 230 -100 callsubr
        </CharString>
        <CharString name="Ycircumflex">
          36 callgsubr
          91 37 callsubr
          255 165 hintmask 11001000
          -91 callgsubr
          hintmask 00110000
          157 80 -102 callsubr
        </CharString>
        <CharString name="Ydieresis">
          36 callgsubr
          75 140 hstemhm
          190 140 -75 165 -45 140 hintmask 11001000
          -91 callgsubr
          hintmask 00110100
          140 155 rmoveto
          -107 callgsubr
          185 hmoveto
          -107 callgsubr
          endchar
        </CharString>
        <CharString name="Ygrave">
          36 callgsubr
          91 -21 150 -20 hstemhm
          255 165 hintmask 11001000
          -91 callgsubr
          hintmask 00110000
          167 230 -84 callsubr
        </CharString>
        <CharString name="Z">
          47 callsubr
          hstem
          55 95 345 95 vstem
          -74 callgsubr
          endchar
        </CharString>
        <CharString name="Zacute">
          47 callsubr
          71 -21 150 -20 hstemhm
          55 95 345 95 hintmask 11001100
          -74 callgsubr
          hintmask 00110000
          -178 875 -100 callsubr
        </CharString>
        <CharString name="Zcaron">
          47 callsubr
          86 -21 150 -20 hstemhm
          55 95 345 95 hintmask 11001100
          -74 callgsubr
          hintmask 00110000
          -38 890 -95 callsubr
        </CharString>
        <CharString name="Zdotaccent">
          47 callsubr
          70 140 hstemhm
          55 95 102 140 103 95 hintmask 11010100
          -74 callgsubr
          hintmask 00101000
          -243 815 rmoveto
          -107 callgsubr
          endchar
        </CharString>
        <CharString name="a">
          -69 callsubr
          -62 callsubr
          hintmask 10110011
          -102 callgsubr
          hintmask 10101101
          -97 callsubr
          hintmask 01110101
          -85 callgsubr
          endchar
        </CharString>
        <CharString name="aacute">
          -69 callsubr
          66 -21 150 -20 -62 callsubr
          hintmask 1011000011000000
          -102 callgsubr
          hintmask 1010100101000000
          -97 callsubr
          hintmask 0111000101000000
          -85 callgsubr
          hintmask 0000011000000000
          20 195 -100 callsubr
        </CharString>
        <CharString name="abreve">
          -69 callsubr
          60 -8 callsubr
          50 165 -125 125 -65 -1 callsubr
          -85 160 hintmask 1011000010010000
          -102 callgsubr
          hintmask 1010100100010000
          -97 callsubr
          hintmask 0111000100010000
          -85 callgsubr
          hintmask 0000010001100000
          25 80 -45 callgsubr
          hintmask 0000001001100000
          -105 callsubr
          hintmask 0000010001100000
          -52 callsubr
        </CharString>
        <CharString name="acircumflex">
          -69 callsubr
          71 -21 165 -20 -62 callsubr
          hintmask 1011000011000000
          -102 callgsubr
          hintmask 1010100101000000
          -97 callsubr
          hintmask 0111000101000000
          -85 callgsubr
          hintmask 0000011000000000
          -120 50 -102 callsubr
        </CharString>
        <CharString name="acute">
          -417 571 -21 150 -20 hstem
          70 700 -100 callsubr
        </CharString>
        <CharString name="adieresis">
          -69 callsubr
          60 140 0 callgsubr
          -125 125 -78 -20 callgsubr
          -97 160 hintmask 1011000100100000
          -102 callgsubr
          hintmask 1010101000100000
          -97 callsubr
          hintmask 0111001000100000
          -85 callgsubr
          hintmask 0000010011000000
          -138 130 rmoveto
          -107 callgsubr
          185 hmoveto
          -107 callgsubr
          endchar
        </CharString>
        <CharString name="ae">
          238 -15 25 225 25 70 -13 callgsubr
          -62 callsubr
          150 165 -50 25 hintmask 1110101010000000
          625 -15 rmoveto
          115 75 75 80 hvcurveto
          -25 hlineto
          -65 -65 -65 -80 -69 -49 47 156 -2 vhcurveto
          22 vlineto
          -10 callgsubr
          30 0 hvcurveto
          hintmask 1110011100000000
          0 10 20 30 -20 callsubr
          -140 -115 -45 -90 0 0 -45 90 -49 callsubr
          -55 -55 -55 -45 30 -30 45 20 20 5 0 vhcurveto
          150 vlineto
          hintmask 1101101100000000
          0 20 10 30 70 40 -40 -155 vhcurveto
          -40 vlineto
          -135 -5 -145 -35 0 0 -35 -40 -60 vvcurveto
          -75 60 -60 145 130 65 95 0 0 45 -95 130 vhcurveto
          -100 275 rmoveto
          5 vlineto
          192 2 39 38 34 hhcurveto
          35 40 -40 -120 -30 -10 -35 0 hvcurveto
          0 -50 -10 -90 vhcurveto
          -290 -35 rmoveto
          0 70 10 60 vhcurveto
          -130 vlineto
          0 -20 -95 -70 -30 -30 30 80 60 20 45 0 vhcurveto
          endchar
        </CharString>
        <CharString name="afii10017">
          -53 callsubr
          hstem
          -105 callgsubr
          endchar
        </CharString>
        <CharString name="afii10018">
          33 0 25 360 25 265 36 callsubr
          195 170 -155 95 hintmask 11110100
          275 410 rmoveto
          265 210 vlineto
          -79 callsubr
          -530 -15 hlineto
          -86 callgsubr
          -79 callgsubr
          280 vlineto
          hintmask 11111000
          230 80 80 125 125 -80 80 -230 hvcurveto
          -25 vmoveto
          80 60 -60 -120 -120 -60 -60 -80 hvcurveto
          -55 360 hlineto
          endchar
        </CharString>
        <CharString name="afii10019">
          43 0 25 330 25 295 36 callsubr
          55 callgsubr
          -135 135 -135 170 hintmask 11110010
          110 670 rmoveto
          -79 callgsubr
          290 vlineto
          230 80 80 110 180 -270 0 0 hvcurveto
          hintmask 11110100
          0 235 0 155 vvcurveto
          95 -80 80 -215 vhcurveto
          -270 -15 hlineto
          290 -330 rmoveto
          80 60 -60 -105 -105 -60 -60 -80 hvcurveto
          -65 330 hlineto
          320 vmoveto
          45 hlineto
          hintmask 11111000
          65 60 -60 -90 -85 -60 -60 -65 hvcurveto
          -45 hlineto
          endchar
        </CharString>
        <CharString name="afii10020">
          -27 45 callgsubr
          95 vstem
          335 hmoveto
          -100 callgsubr
          645 -34 callgsubr
          endchar
        </CharString>
        <CharString name="afii10021">
          63 -170 195 -25 25 650 25 hstemhm
          -10 115 80 30 210 165 -20 115 hintmask 10111100
          225 675 rmoveto
          200 -650 -320 hlineto
          0 92 65 8 160 vhcurveto
          -215 -225 rmoveto
          -195 30 vlineto
          hintmask 01111010
          0 85 60 110 vvcurveto
          465 hlineto
          hintmask 10111010
          60 callsubr
          hintmask 10111100
          -95 3 callsubr
          -525 54 callgsubr
          -415 rlineto
          -8 -160 -97 -65 0 vvcurveto
          endchar
        </CharString>
        <CharString name="afii10022">
          -52 callgsubr
          -33 callsubr
          hintmask 11111000
          -99 callsubr
          vlineto
          hintmask 11110100
          -99 callgsubr
          endchar
        </CharString>
        <CharString name="afii10023">
          -52 callgsubr
          70 140 hstemhm
          -70 callsubr
          -95 -20 callgsubr
          -15 95 -75 95 hintmask 1111011010000000
          180 840 rmoveto
          -107 callgsubr
          185 hmoveto
          -107 callgsubr
          hintmask 1111100100000000
          -90 -480 rmoveto
          315 -34 callgsubr
          hintmask 1111101010000000
          -99 callgsubr
          endchar
        </CharString>
        <CharString name="afii10024">
          388 21 callgsubr
          hstemhm
          45 120 265 165 265 120 cntrmask 00001110
          hintmask 11101110
          295 380 rmoveto
          -95 -40 -40 -45 -15 hvcurveto
          -90 -265 -50 -15 rlineto
          -15 120 vlineto
          75 33 35 50 17 hvcurveto
          95 275 rlineto
          85 -330 hlineto
          -92 callsubr
          330 85 vlineto
          95 -275 rlineto
          -50 17 33 -35 75 hhcurveto
          120 -14 callsubr
          -90 265 rlineto
          45 -15 -40 40 -95 hhcurveto
          -25 hlineto
          -42 callsubr
          hintmask 11011110
          -18 callsubr
          -45 285 hlineto
          -71 callsubr
          hintmask 11101110
          -12 callsubr
          -15 vlineto
          -86 callgsubr
          -285 -45 vlineto
          -50 -34 35 60 -16 hvcurveto
          -35 130 rlineto
          hintmask 11011110
          60 -16 -39 40 -50 hhcurveto
          -60 -40 -40 -50 hvcurveto
          hintmask 11101110
          -50 35 -35 45 20 20 5 0 vhcurveto
          140 vlineto
          21 -5 23 -25 11 -40 35 -130 rcurveline
          21 -78 41 -21 2 -1 rrcurveto
          endchar
        </CharString>
        <CharString name="afii10025">
          -22 -15 25 345 25 135 -20 195 25 -10 -20 hstemhm
          25 25 335 170 -140 170 hintmask 11110110
          290 715 rmoveto
          -90 11 callsubr
          130 65 50 -50 -105 -105 -50 -50 -70 vhcurveto
          -70 -25 80 hlineto
          hintmask 11110101
          80 60 -60 -115 -110 -60 -60 -100 -115 -90 90 100 hvcurveto
          -25 hlineto
          -115 100 -100 150 220 90 90 105 190 -265 0 0 vhcurveto
          hintmask 11110110
          0 235 0 165 vvcurveto
          90 -90 90 -175 vhcurveto
          endchar
        </CharString>
        <CharString name="afii10026">
          148 59 callsubr
          235 165 vstem
          110 -31 callgsubr
          75 vlineto
          235 430 rlineto
          -505 -101 callsubr
          60 -15 rlineto
          -75 vlineto
          -235 -430 rlineto
          505 vlineto
          -11 callgsubr
          -285 -15 vlineto
          endchar
        </CharString>
        <CharString name="afii10027">
          148 -26 callsubr
          90 -8 callsubr
          -70 callsubr
          -35 -1 callsubr
          -30 165 hintmask 11100110
          390 790 -45 callgsubr
          hintmask 11010110
          -105 callsubr
          hintmask 11101010
          1 -20 -11 -35 vhcurveto
          -280 -120 rmoveto
          -79 callgsubr
          vlineto
          hintmask 11100110
          285 15 hlineto
          hintmask 11101001
          -60 15 rlineto
          75 vlineto
          235 430 rlineto
          -505 -101 callsubr
          60 -15 rlineto
          -75 vlineto
          -235 -430 rlineto
          505 vlineto
          hintmask 11100110
          -11 callgsubr
          -285 -15 vlineto
          endchar
        </CharString>
        <CharString name="afii10028">
          73 21 callgsubr
          hstemhm
          110 165 270 120 hintmask 11101100
          390 380 rmoveto
          -42 callsubr
          hintmask 11011100
          -18 callsubr
          -50 285 hlineto
          -71 callsubr
          hintmask 11101100
          -38 callgsubr
          endchar
        </CharString>
        <CharString name="afii10029">
          73 -15 175 -139 -21 675 51 callgsubr
          hintmask 10111100
          14 callsubr
          hintmask 01111100
          -15 285 -100 callgsubr
          640 vlineto
          -11 callgsubr
          -515 54 callgsubr
          -415 -9 -185 -41 -40 -35 -10 rlinecurve
          140 vlineto
          hintmask 10111100
          -9 callgsubr
          vhcurveto
          endchar
        </CharString>
        <CharString name="afii10030">
          -27 callgsubr
          -135 -15 hlineto
          70 -47 callgsubr
        </CharString>
        <CharString name="afii10031">
          27 callgsubr
          hstem
          110 165 215 165 vstem
          110 -31 callgsubr
          305 215 -305 -101 callsubr
          60 -15 rlineto
          -310 -215 310 vlineto
          -11 callgsubr
          -285 -15 vlineto
          endchar
        </CharString>
        <CharString name="afii10032">
          -15 callsubr
          hstem
          -7 callsubr
          300 175 vstem
          520 350 rmoveto
          -265 -80 -80 -70 -70 -80 80 265 265 80 80 70 70 80 -80 -265 vhcurveto
          175 hmoveto
          -41 callsubr
          -195 40 callgsubr
          -235 130 -130 8 callsubr
          130 130 235 vhcurveto
          endchar
        </CharString>
        <CharString name="afii10033">
          128 45 callgsubr
          165 vstem
          110 -31 callgsubr
          645 215 -645 -93 callsubr
          640 vlineto
          -11 callgsubr
          -665 -15 vlineto
          endchar
        </CharString>
        <CharString name="afii10034">
          38 21 -21 270 25 380 18 callsubr
          195 170 vstem
          275 295 rmoveto
          380 55 vlineto
          80 60 -60 -49 callsubr
          -60 -60 -80 hvcurveto
          -25 vmoveto
          230 80 80 135 135 -80 80 -230 hvcurveto
          -280 -15 hlineto
          -86 callgsubr
          -640 -93 callsubr
          240 vlineto
          endchar
        </CharString>
        <CharString name="afii10035">
          -16 callgsubr
          9 callgsubr
          370 25 hintmask 11101100
          -96 callsubr
          hintmask 11011100
          -85 callsubr
          hintmask 11101100
          0 -65 65 -94 vhcurveto
          endchar
        </CharString>
        <CharString name="afii10036">
          -56 callgsubr
        </CharString>
        <CharString name="afii10037">
          23 -15 175 540 -20 hstem
          125 120 vstem
          -56 callsubr
          endchar
        </CharString>
        <CharString name="afii10038">
          258 21 -21 715 -20 hstem
          20 175 170 165 170 175 cntrmask 00111000
          365 30 rmoveto
          -92 callsubr
          55 vlineto
          225 10 120 120 145 vvcurveto
          145 -120 120 -225 10 vhcurveto
          50 -72 callgsubr
          -50 vlineto
          -225 -10 -120 -120 -145 vvcurveto
          -145 120 -120 225 -10 vhcurveto
          165 530 rmoveto
          90 -10 80 -80 -165 vvcurveto
          -165 -80 -80 -90 -10 vhcurveto
          -165 hmoveto
          -90 10 -80 80 165 vvcurveto
          165 80 80 90 10 vhcurveto
          endchar
        </CharString>
        <CharString name="afii10039">
          -64 callsubr
        </CharString>
        <CharString name="afii10040">
          128 -149 -21 170 25 675 -23 callsubr
          215 165 -20 115 hintmask 11110100
          635 hmoveto
          60 callsubr
          hintmask 11111000
          -95 645 hlineto
          -19 callgsubr
        </CharString>
        <CharString name="afii10041">
          88 21 -21 265 25 410 -20 hstem
          80 165 205 165 vstem
          450 320 rmoveto
          0 -40 -30 -50 -75 -40 40 110 vhcurveto
          230 vlineto
          -34 callsubr
          -105 70 -70 170 80 50 30 0 vhcurveto
          -265 -101 callsubr
          60 -15 rlineto
          endchar
        </CharString>
        <CharString name="afii10042">
          448 0 25 675 -3 callsubr
          185 165 185 165 cntrmask 00111000
          50 15 rmoveto
          -15 985 -100 callgsubr
          640 vlineto
          -35 callsubr
          endchar
        </CharString>
        <CharString name="afii10043">
          448 -149 -21 170 25 675 -23 callsubr
          185 165 185 165 -20 115 hintmask 11111100
          975 670 rmoveto
          -35 callsubr
          -86 callsubr
          -15 vlineto
          hintmask 11111010
          905 hlineto
          60 callsubr
          hintmask 11111100
          -95 hlineto
          endchar
        </CharString>
        <CharString name="afii10044">
          118 0 25 370 25 255 25 hstem
          25 95 80 165 195 170 vstem
          200 675 rmoveto
          -645 vlineto
          -86 callsubr
          -15 280 -17 callgsubr
          -55 250 hlineto
          -11 callgsubr
          -400 -180 30 vlineto
          0 65 50 105 vvcurveto
          300 -280 rmoveto
          80 60 -60 -125 -125 -60 -60 -80 hvcurveto
          -55 370 hlineto
          endchar
        </CharString>
        <CharString name="afii10045">
          378 0 25 370 25 280 -3 callsubr
          205 170 90 165 vstem
          740 670 rmoveto
          -640 -101 callsubr
          -405 -265 -44 callgsubr
        </CharString>
        <CharString name="afii10046">
          38 0 25 370 25 280 -3 callsubr
          205 170 vstem
          275 420 -44 callgsubr
        </CharString>
        <CharString name="afii10047">
          29 callsubr
          35 25 370 175 hintmask 11110110
          289 715 rmoveto
          -94 11 callsubr
          135 80 80 -80 -250 vhcurveto
          -130 hlineto
          -10 55 -35 45 0 vvcurveto
          -30 -225 30 hlineto
          0 35 45 10 55 vhcurveto
          130 hlineto
          -250 -5 -75 -75 -105 hhcurveto
          -95 -90 90 100 hvcurveto
          -25 hlineto
          -115 100 -100 130 210 130 130 235 -41 callsubr
          -186 vhcurveto
          endchar
        </CharString>
        <CharString name="afii10048">
          378 -15 20 16 -21 335 25 335 20 -15 -23 callsubr
          85 175 260 175 hintmask 10110111
          665 715 rmoveto
          -175 -125 -125 -230 -5 hvcurveto
          -85 310 hlineto
          -71 callsubr
          hintmask 01101111
          -77 callsubr
          285 15 vlineto
          -60 15 rlineto
          305 85 vlineto
          hintmask 10110111
          -225 5 130 -125 170 hhcurveto
          175 130 130 235 -41 callsubr
          -175 hvcurveto
          -20 vmoveto
          60 70 -70 -275 -275 -70 -70 -60 -60 -70 70 275 275 70 70 60 hvcurveto
          endchar
        </CharString>
        <CharString name="afii10049">
          68 21 -21 310 25 340 25 hstem
          70 170 190 165 vstem
          360 310 rmoveto
          70 -280 hlineto
          -70 -15 rlineto
          -15 295 -100 callgsubr
          640 vlineto
          -11 callgsubr
          -265 vlineto
          -240 -80 -80 -115 -185 230 0 0 hvcurveto
          0 -115 0 -40 -90 vhcurveto
          -90 -200 -50 -15 rlineto
          -15 135 vlineto
          60 38 35 50 22 hvcurveto
          130 250 rmoveto
          -90 -60 60 -40 callgsubr
          60 60 90 hvcurveto
          40 -340 hlineto
          endchar
        </CharString>
        <CharString name="afii10050">
          -47 21 -21 675 25 155 -3 callsubr
          215 95 vstem
          585 675 rmoveto
          -59 callgsubr
          -440 -15 hlineto
          -86 callgsubr
          -640 -93 callsubr
          645 vlineto
          endchar
        </CharString>
        <CharString name="afii10051">
          133 -9 -21 41 -21 31 20 callgsubr
          hintmask 0101101111000000
          565 90 rmoveto
          -70 -30 -30 -30 vhcurveto
          hintmask 1011011111000000
          -20 vlineto
          175 50 50 70 hvcurveto
          170 30 callgsubr
          hintmask 0101101111000000
          -79 callsubr
          -515 -180 30 hlineto
          hintmask 1011011111000000
          0 65 50 105 vvcurveto
          75 -645 hlineto
          -92 callsubr
          350 vlineto
          60 callgsubr
          endchar
        </CharString>
        <CharString name="afii10052">
          -27 21 -21 675 25 75 46 callgsubr
          hintmask 11001100
          335 hmoveto
          -100 callgsubr
          645 -34 callgsubr
          hintmask 00110000
          290 904 -100 callsubr
        </CharString>
        <CharString name="afii10053">
          29 callsubr
          45 175 370 25 hintmask 11110110
          361 715 rmoveto
          -186 -49 callsubr
          -235 -235 130 -130 210 56 callsubr
          115 hvcurveto
          -25 hlineto
          -100 -90 -90 -95 -105 -75 75 250 -5 vhcurveto
          130 hlineto
          10 -55 35 -45 0 vvcurveto
          30 225 -30 hlineto
          0 -35 -45 -10 -55 vhcurveto
          -130 hlineto
          250 80 80 80 -35 callgsubr
          hintmask 11101110
          -85 callsubr
          hintmask 11110110
          0 -65 65 -94 vhcurveto
          endchar
        </CharString>
        <CharString name="afii10054">
          -75 callsubr
        </CharString>
        <CharString name="afii10055">
          -252 59 callsubr
          vstem
          110 670 rmoveto
          -640 -101 callsubr
          endchar
        </CharString>
        <CharString name="afii10056">
          -30 callgsubr
          94 140 hstemhm
          30 140 -60 165 -60 140 hintmask 11001000
          110 670 rmoveto
          -640 -101 callsubr
          hintmask 00110100
          -20 159 rmoveto
          -107 callgsubr
          185 hmoveto
          -107 callgsubr
          endchar
        </CharString>
        <CharString name="afii10057">
          -61 callsubr
        </CharString>
        <CharString name="afii10058">
          363 -15 175 -160 25 370 25 255 51 callgsubr
          205 170 hintmask 10111111
          14 callsubr
          hintmask 01111111
          -15 290 -17 callgsubr
          -65 250 hlineto
          -11 callgsubr
          -515 54 callgsubr
          -415 -9 -185 -41 -40 -35 -10 rlinecurve
          140 vlineto
          hintmask 10111111
          -9 callgsubr
          vhcurveto
          575 410 rmoveto
          80 60 -60 -125 hvcurveto
          hintmask 01111111
          -125 -60 -60 -80 vhcurveto
          -65 370 hlineto
          endchar
        </CharString>
        <CharString name="afii10059">
          418 0 25 350 25 300 -3 callsubr
          215 165 205 170 vstem
          655 400 rmoveto
          270 -72 callgsubr
          -270 -215 270 -39 callgsubr
          285 15 vlineto
          -60 15 rlineto
          345 215 -345 vlineto
          -86 callsubr
          -15 290 vlineto
          230 80 80 120 120 -80 80 -230 hvcurveto
          -25 vmoveto
          80 60 -60 -115 -115 -60 -60 -80 hvcurveto
          -65 350 hlineto
          endchar
        </CharString>
        <CharString name="afii10060">
          168 21 20 callgsubr
          hintmask 11011111
          360 380 rmoveto
          60 callgsubr
          -230 -93 callsubr
          230 30 callgsubr
          hintmask 11101111
          -79 callsubr
          -515 -180 30 hlineto
          hintmask 11011111
          0 65 50 105 vvcurveto
          75 -645 hlineto
          -92 callsubr
          endchar
        </CharString>
        <CharString name="afii10061">
          73 21 callgsubr
          65 -6 callsubr
          270 120 hintmask 11100011
          390 380 rmoveto
          -42 callsubr
          hintmask 11010011
          -18 callsubr
          -50 285 hlineto
          -71 callsubr
          hintmask 11100011
          -38 callgsubr
          hintmask 00001100
          -35 504 -100 callsubr
        </CharString>
        <CharString name="afii10062">
          23 -15 175 540 -20 64 -8 callsubr
          125 120 -40 -1 callsubr
          hintmask 11001000
          -56 callsubr
          hintmask 00100110
          315 94 -45 callgsubr
          hintmask 00010110
          -105 callsubr
          hintmask 00100110
          -52 callsubr
        </CharString>
        <CharString name="afii10065">
          -69 callsubr
          -62 callsubr
          hintmask 10110011
          -102 callgsubr
          hintmask 10101101
          -97 callsubr
          hintmask 01110101
          -85 callgsubr
          endchar
        </CharString>
        <CharString name="afii10066">
          -37 -15 20 430 20 295 -20 hstemhm
          50 35 -35 55 callgsubr
          145 -145 170 hintmask 11101100
          305 435 rmoveto
          40 45 -45 -170 -170 -45 -45 -40 -40 -45 45 55 callgsubr
          45 45 40 hvcurveto
          hintmask 11110100
          -220 -135 rmoveto
          hintmask 11101100
          140 70 69 65 11 vhcurveto
          230 40 rlineto
          55 10 30 30 60 vvcurveto
          90 -15 vlineto
          -15 -50 -230 -40 rlineto
          -135 -23 -90 -87 -250 vvcurveto
          -60 vlineto
          -165 90 -90 165 vhcurveto
          hintmask 11110010
          165 90 90 145 145 -90 90 -165 -120 -80 -85 -70 -20 hvcurveto
          endchar
        </CharString>
        <CharString name="afii10067">
          -32 0 25 220 25 205 25 hstemhm
          -28 callsubr
          120 165 -135 135 -135 165 hintmask 11110010
          315 hmoveto
          195 65 65 70 125 -220 0 0 hvcurveto
          hintmask 11110100
          0 190 0 115 vvcurveto
          60 -65 65 -185 vhcurveto
          -255 -15 hlineto
          -86 callgsubr
          -2 callsubr
          -15 vlineto
          275 245 rmoveto
          55 40 -40 -70 -70 -40 -40 -55 hvcurveto
          -55 220 hlineto
          35 230 rmoveto
          hintmask 11111000
          45 40 -40 -60 -65 -41 -40 -44 hvcurveto
          -35 205 hlineto
          endchar
        </CharString>
        <CharString name="afii10068">
          -107 21 -21 475 25 hstem
          -28 callsubr
          150 95 vstem
          -11 callsubr
          endchar
        </CharString>
        <CharString name="afii10069">
          -22 -165 190 -25 25 450 25 hstemhm
          -10 115 50 30 -28 callgsubr
          -25 115 hintmask 10111100
          105 25 rmoveto
          0 63 45 7 100 vhcurveto
          20 305 rlineto
          155 -450 hlineto
          -255 475 rmoveto
          54 callgsubr
          -295 rlineto
          -7 -100 -68 -45 0 vvcurveto
          -80 -190 30 hlineto
          hintmask 01111010
          0 85 55 110 vvcurveto
          380 hlineto
          hintmask 10111010
          26 callgsubr
          hintmask 10111100
          -90 445 hlineto
          -11 callgsubr
          vlineto
          endchar
        </CharString>
        <CharString name="afii10070">
          -27 callsubr
          44 callsubr
          150 165 -50 25 hintmask 11111000
          -94 callsubr
          hintmask 11110100
          -95 callgsubr
          hintmask 11111000
          0 10 25 35 -20 callsubr
          -150 -145 -100 -100 -165 -165 100 -100 170 vhcurveto
          endchar
        </CharString>
        <CharString name="afii10071">
          -27 callsubr
          65 18 callgsubr
          -80 -20 callgsubr
          -95 165 -50 25 hintmask 1111011010000000
          130 650 rmoveto
          -107 callgsubr
          185 hmoveto
          -107 callgsubr
          hintmask 1111100100000000
          -105 -400 rmoveto
          205 -14 callgsubr
          -40 -120 -40 -10 -35 0 vhcurveto
          0 -50 -10 -90 vhcurveto
          100 -265 rmoveto
          hintmask 1111101010000000
          -95 callgsubr
          hintmask 1111100100000000
          0 10 25 35 -20 callsubr
          -150 -145 -100 -100 -165 -165 100 -100 170 vhcurveto
          endchar
        </CharString>
        <CharString name="afii10072">
          243 21 -21 250 25 65 160 10 -20 hstemhm
          40 115 205 160 205 115 cntrmask 00001110
          hintmask 11101110
          605 -47 callsubr
          hintmask 11011110
          27 callsubr
          hintmask 11101110
          -25 -90 rlineto
          -35 -10 -30 -30 -40 hhcurveto
          -30 195 hlineto
          -70 callgsubr
          -195 -35 vlineto
          -40 -25 30 35 -10 hvcurveto
          -25 90 rlineto
          hintmask 11011110
          50 -14 -31 30 -45 hhcurveto
          -60 -35 -35 -55 hvcurveto
          hintmask 11101110
          -50 30 -30 45 20 20 5 0 vhcurveto
          135 vlineto
          20 -5 12 -15 8 -30 25 -90 rcurveline
          15 -55 40 -15 0 vvcurveto
          -30 hlineto
          -85 -40 -40 -45 -15 hvcurveto
          -50 -155 -50 -15 rlineto
          -15 105 vlineto
          75 40 40 45 15 hvcurveto
          55 165 rlineto
          65 -220 hlineto
          -104 callsubr
          220 65 vlineto
          55 -165 rlineto
          -45 15 40 -40 75 hhcurveto
          105 -14 callsubr
          -50 155 rlineto
          45 -15 -40 40 -85 hhcurveto
          endchar
        </CharString>
        <CharString name="afii10073">
          -107 -15 25 230 25 65 -13 callgsubr
          hstemhm
          30 25 -10 115 155 165 -145 145 -145 165 hintmask 1110100010000000
          220 10 rmoveto
          -100 -65 65 65 hvcurveto
          -25 hlineto
          -80 75 -75 135 195 65 65 75 130 -210 0 0 vhcurveto
          hintmask 1110011000000000
          0 190 0 125 vvcurveto
          70 -65 65 -175 -140 -55 -55 -55 -45 30 -30 45 20 20 5 0 vhcurveto
          150 vlineto
          hintmask 1101101000000000
          0 25 10 35 55 40 -40 -75 -75 -40 -40 -55 vhcurveto
          -45 -25 65 hlineto
          hintmask 1110100100000000
          55 40 -40 -75 -75 -40 -40 -75 hvcurveto
          endchar
        </CharString>
        <CharString name="afii10074">
          43 21 -21 500 54 callsubr
          160 160 vstem
          -57 callgsubr
          endchar
        </CharString>
        <CharString name="afii10075">
          43 -43 callsubr
          90 -8 callsubr
          -28 callsubr
          -70 -1 callsubr
          -70 160 hintmask 11101001
          -57 callgsubr
          -20 105 rmoveto
          hintmask 11010110
          -67 callsubr
          -105 callsubr
          hintmask 11101010
          -52 callsubr
        </CharString>
        <CharString name="afii10076">
          50 callgsubr
          hstemhm
          -28 callsubr
          210 115 hintmask 11101100
          350 -47 callsubr
          hintmask 11011100
          27 callsubr
          hintmask 11101100
          -55 callgsubr
          endchar
        </CharString>
        <CharString name="afii10077">
          -12 -15 170 -134 -21 475 25 hstemhm
          -10 115 75 20 -28 callgsubr
          hintmask 10111100
          55 callgsubr
          rmoveto
          -8 -115 -32 -30 -25 -10 rrcurveto
          135 vlineto
          -32 callsubr
          -40 -35 -35 -45 -55 35 -35 60 55 51 50 135 9 vhcurveto
          20 305 rlineto
          145 -445 hlineto
          -86 callsubr
          hintmask 01111100
          -21 callgsubr
          -465 -15 vlineto
          70 -20 rlineto
          endchar
        </CharString>
        <CharString name="afii10078">
          173 11 -21 31 -22 callsubr
          hstemhm
          100 30 420 160 hintmask 01111000
          670 500 rmoveto
          -75 -32 -30 -50 -23 hvcurveto
          -109 -241 -136 241 rlineto
          45 -25 -35 35 -70 hhcurveto
          -135 -15 hlineto
          70 -15 rlineto
          -425 vlineto
          10 callsubr
          190 15 vlineto
          -80 30 rlineto
          335 vlineto
          hintmask 10111000
          220 -390 rlineto
          24 hlineto
          176 390 rlineto
          -350 vlineto
          -86 callsubr
          hintmask 01111000
          -21 callgsubr
          vlineto
          endchar
        </CharString>
        <CharString name="afii10079">
          33 21 -21 240 25 235 54 callsubr
          43 callsubr
          vstem
          410 470 rmoveto
          -205 -150 205 vlineto
          60 15 rlineto
          15 -280 -15 vlineto
          -106 callsubr
          210 150 -210 vlineto
          -60 -15 rlineto
          -21 callgsubr
          -280 -15 vlineto
          endchar
        </CharString>
        <CharString name="afii10080">
          -1 callgsubr
          hstem
          40 -23 callgsubr
          vstem
          305 -104 callgsubr
          endchar
        </CharString>
        <CharString name="afii10081">
          33 21 -21 475 25 hstem
          -28 callsubr
          43 callsubr
          vstem
          40 485 rmoveto
          60 -15 rlineto
          22 callsubr
          -445 vlineto
          -60 -15 rlineto
          -21 callgsubr
          -590 vlineto
          endchar
        </CharString>
        <CharString name="afii10082">
          -69 callgsubr
        </CharString>
        <CharString name="afii10083">
          -107 -15 16 callgsubr
          hstemhm
          40 55 callgsubr
          115 -20 20 hintmask 10111000
          -60 callsubr
          hintmask 11010100
          -91 callsubr
          -70 -50 50 190 vhcurveto
          hintmask 10111000
          58 callsubr
          70 vhcurveto
          endchar
        </CharString>
        <CharString name="afii10084">
          -87 21 -21 325 175 -25 25 hstemhm
          25 95 75 160 75 95 cntrmask 00011100
          hintmask 10111100
          430 475 rmoveto
          hintmask 11011100
          -95 65 -55 0 vhcurveto
          30 175 -500 -175 30 hlineto
          hintmask 10111100
          0 65 55 95 vvcurveto
          75 -445 hlineto
          -104 callsubr
          445 vlineto
          endchar
        </CharString>
        <CharString name="afii10085">
          6 callgsubr
          hstem
          55 115 vstem
          -103 callsubr
          endchar
        </CharString>
        <CharString name="afii10086">
          173 -200 215 -20 20 470 20 -20 215 hstemhm
          30 170 125 160 125 170 cntrmask 00001110
          hintmask 01101110
          485 485 rmoveto
          65 -5 60 -60 -170 vvcurveto
          -170 -60 -60 -65 -5 vhcurveto
          -160 490 rmoveto
          -185 -5 -110 -110 -140 vvcurveto
          -140 110 -110 185 -5 vhcurveto
          -165 vlineto
          -86 callsubr
          hintmask 10101110
          -15 280 -100 callgsubr
          hintmask 01101110
          165 vlineto
          185 5 110 -7 callgsubr
          vvcurveto
          140 -110 110 -185 5 vhcurveto
          105 vlineto
          hintmask 10011110
          60 -30 30 -60 vhcurveto
          55 callsubr
          -86 callgsubr
          hintmask 10101110
          -655 vmoveto
          -65 5 -60 60 170 vvcurveto
          170 60 60 65 5 vhcurveto
          endchar
        </CharString>
        <CharString name="afii10087">
          -82 -43 callsubr
          hstem
          90 45 rmoveto
          10 callsubr
          190 15 vlineto
          -75 30 105 134 60 -94 rlineto
          -50 32 33 -35 70 hhcurveto
          135 -14 callsubr
          -179 280 114 145 -88 callsubr
          75 -30 -94 -121 -51 81 rlineto
          50 -32 -33 35 -70 hhcurveto
          -135 3 callgsubr
          169 -266 rlineto
          endchar
        </CharString>
        <CharString name="afii10088">
          38 39 callgsubr
          43 callsubr
          -25 115 hintmask 11110100
          545 hmoveto
          26 callgsubr
          hintmask 11111000
          -90 445 hlineto
          -70 callgsubr
          -445 -150 445 vlineto
          25 callsubr
          -15 vlineto
          endchar
        </CharString>
        <CharString name="afii10089">
          -2 0 205 -25 25 295 -20 hstemhm
          75 160 140 160 hintmask 01111000
          375 230 rmoveto
          0 -30 -25 -35 -45 -30 30 90 vhcurveto
          145 vlineto
          -70 callgsubr
          -145 vlineto
          -85 60 -60 135 65 40 25 0 vhcurveto
          -175 vlineto
          -86 callsubr
          hintmask 10111000
          -21 callgsubr
          -280 -15 vlineto
          60 -15 rlineto
          endchar
        </CharString>
        <CharString name="afii10090">
          303 0 25 475 54 callsubr
          130 160 130 160 cntrmask 00111000
          40 hmoveto
          860 15 hlineto
          -60 15 rlineto
          440 vlineto
          -11 callgsubr
          -275 -15 vlineto
          55 -15 rlineto
          -445 -130 445 vlineto
          55 15 rlineto
          15 -270 -15 vlineto
          55 -15 rlineto
          -445 -130 445 vlineto
          55 15 rlineto
          15 -275 -15 vlineto
          -86 callgsubr
          -2 callsubr
          endchar
        </CharString>
        <CharString name="afii10091">
          308 39 callgsubr
          130 160 130 160 -25 115 hintmask 11111010
          815 hmoveto
          26 callgsubr
          hintmask 11111100
          -90 445 hlineto
          -11 callgsubr
          -275 -15 vlineto
          55 -15 rlineto
          -445 -130 445 vlineto
          55 15 rlineto
          15 -270 -15 vlineto
          55 -15 rlineto
          -445 -130 445 vlineto
          55 15 rlineto
          15 -275 -15 vlineto
          -86 callgsubr
          -2 callsubr
          -15 vlineto
          endchar
        </CharString>
        <CharString name="afii10092">
          33 0 25 250 25 175 25 hstem
          25 95 70 160 135 165 vstem
          190 475 rmoveto
          -445 vlineto
          -86 callsubr
          -15 260 47 callgsubr
          85 -65 65 -195 hvcurveto
          -40 170 hlineto
          -11 callgsubr
          -385 -175 30 vlineto
          0 65 55 95 vvcurveto
          270 -200 rmoveto
          55 40 -40 -85 -85 -40 -40 -55 hvcurveto
          -40 250 hlineto
          endchar
        </CharString>
        <CharString name="afii10093">
          273 28 callsubr
          80 160 hintmask 11011100
          260 300 rmoveto
          170 vlineto
          -71 callsubr
          hintmask 10111100
          10 callgsubr
          hintmask 11011100
          85 -65 65 -195 vhcurveto
          2 callgsubr
          550 195 rmoveto
          -71 callsubr
          hintmask 10111100
          15 -280 -15 vlineto
          -106 callsubr
          endchar
        </CharString>
        <CharString name="afii10094">
          -47 28 callsubr
          hintmask 11011000
          260 300 rmoveto
          170 vlineto
          -71 callsubr
          hintmask 10111000
          10 callgsubr
          hintmask 11011000
          85 -65 65 -195 vhcurveto
          2 callgsubr
          endchar
        </CharString>
        <CharString name="afii10095">
          45 callsubr
          35 20 -20 115 55 callgsubr
          hintmask 11011010
          200 495 rmoveto
          70 50 -50 -190 hvcurveto
          -75 hlineto
          hintmask 11101010
          -10 40 -30 35 0 vvcurveto
          -25 -175 25 hlineto
          0 30 35 10 40 vhcurveto
          75 hlineto
          -175 -5 -50 -45 -65 hhcurveto
          -80 -65 65 65 hvcurveto
          -25 hlineto
          -80 75 -75 115 170 100 100 165 165 -100 100 -170 -130 -55 -55 -55 -45 30 -30 45 vhcurveto
          hintmask 11010110
          20 20 5 0 hvcurveto
          150 vlineto
          0 20 10 30 vhcurveto
          endchar
        </CharString>
        <CharString name="afii10096">
          248 -15 20 16 -21 240 25 230 20 -15 -20 hstemhm
          -28 callsubr
          75 170 55 callgsubr
          hintmask 10110111
          590 -15 rmoveto
          155 100 100 165 165 -100 100 -155 -150 -100 -95 -155 -5 hvcurveto
          -75 205 hlineto
          -71 callsubr
          hintmask 01101111
          15 -280 -15 vlineto
          -106 callsubr
          210 75 vlineto
          hintmask 10110111
          -160 5 100 -95 150 hhcurveto
          20 vmoveto
          -40 -45 45 200 200 45 45 40 40 45 -45 -200 -200 -45 -45 -40 hvcurveto
          endchar
        </CharString>
        <CharString name="afii10097">
          -7 0 245 -25 25 230 25 hstemhm
          65 165 140 160 hintmask 01111000
          370 220 rmoveto
          -190 vlineto
          -86 callsubr
          hintmask 10111000
          -21 callgsubr
          -265 vlineto
          -195 -65 -65 -75 -130 180 0 0 hvcurveto
          0 -123 0 -27 -80 vhcurveto
          -40 -120 -50 -15 rlineto
          -15 120 vlineto
          65 42 40 40 13 hvcurveto
          hintmask 01111000
          45 140 rlineto
          35 25 rmoveto
          -55 -40 40 75 75 40 40 55 hvcurveto
          45 -230 hlineto
          endchar
        </CharString>
        <CharString name="afii10098">
          -127 21 -21 475 25 150 54 callsubr
          150 95 vstem
          505 475 rmoveto
          175 -30 vlineto
          0 -65 -55 -95 vvcurveto
          -370 -15 hlineto
          -106 callsubr
          445 vlineto
          endchar
        </CharString>
        <CharString name="afii10099">
          18 -9 -21 41 -21 31 -21 450 35 60 25 -25 155 hstemhm
          100 48 callgsubr
          hintmask 01011011
          425 90 rmoveto
          -70 -30 -30 -30 vhcurveto
          hintmask 10111011
          -20 vlineto
          170 50 50 70 hvcurveto
          230 21 callsubr
          125 125 25 -125 40 vlineto
          hintmask 01010111
          60 -30 30 -60 vhcurveto
          55 callsubr
          -86 callgsubr
          hintmask 10111011
          -100 -65 -25 65 -515 -103 callgsubr
          340 vlineto
          0 30 80 60 35 40 -40 -90 vhcurveto
          endchar
        </CharString>
        <CharString name="afii10100">
          -107 21 -21 475 25 71 -21 150 -20 hstemhm
          -28 callsubr
          150 95 hintmask 11001100
          -11 callsubr
          hintmask 00110000
          260 215 -100 callsubr
        </CharString>
        <CharString name="afii10101">
          45 callsubr
          40 55 callgsubr
          115 -20 20 hintmask 11011100
          -60 callsubr
          hintmask 11101010
          -91 callsubr
          -65 -50 -7 callsubr
          -5 vhcurveto
          75 hlineto
          10 -40 30 -35 0 vvcurveto
          25 175 -25 hlineto
          0 -30 -35 -10 -40 vhcurveto
          -75 hlineto
          hintmask 11011100
          190 50 50 70 vhcurveto
          endchar
        </CharString>
        <CharString name="afii10102">
          26 callsubr
          0 callgsubr
          125 136 -136 165 hintmask 10101010
          -78 callsubr
          hintmask 10011100
          -44 callsubr
          hintmask 10101100
          -81 callgsubr
          hintmask 01101100
          -33 callgsubr
          hintmask 10101100
          0 55 -55 95 vhcurveto
          endchar
        </CharString>
        <CharString name="afii10103">
          -54 callgsubr
        </CharString>
        <CharString name="afii10104">
          -43 callsubr
          80 140 hstemhm
          8 140 -48 160 -67 140 hintmask 11001000
          40 500 rmoveto
          -15 vlineto
          -106 callsubr
          380 -80 callgsubr
          hintmask 00110100
          -162 130 rmoveto
          -107 callgsubr
          185 hmoveto
          -107 callgsubr
          endchar
        </CharString>
        <CharString name="afii10105">
          -68 callgsubr
        </CharString>
        <CharString name="afii10106">
          218 -15 170 -155 25 250 25 175 25 hstemhm
          -10 115 75 20 165 -10 callgsubr
          165 hintmask 10111111
          525 300 rmoveto
          170 vlineto
          -11 callgsubr
          -465 54 callgsubr
          -295 -8 -115 -32 -30 -25 -10 rlinecurve
          135 vlineto
          -32 callsubr
          -40 -35 -35 -45 -55 35 -35 60 55 51 50 135 9 vhcurveto
          20 305 rlineto
          145 -445 hlineto
          -86 callsubr
          hintmask 01111111
          -15 270 47 callgsubr
          85 -65 65 -195 hvcurveto
          2 callgsubr
          endchar
        </CharString>
        <CharString name="afii10107">
          263 0 25 235 30 -30 240 hstemhm
          -28 callsubr
          150 -10 callgsubr
          165 hintmask 11011100
          570 290 rmoveto
          180 vlineto
          -71 callsubr
          hintmask 10111100
          15 -280 -15 vlineto
          -86 callgsubr
          -185 -150 185 vlineto
          60 15 rlineto
          15 -280 -15 vlineto
          -106 callsubr
          230 150 -230 vlineto
          -86 callsubr
          -15 270 vlineto
          195 65 65 80 hvcurveto
          hintmask 11011100
          80 -65 65 -195 vhcurveto
          -25 vmoveto
          55 40 -40 -80 -80 -40 -40 -55 hvcurveto
          -50 240 hlineto
          endchar
        </CharString>
        <CharString name="afii10108">
          28 21 -21 450 35 60 25 -25 155 hstemhm
          100 48 callgsubr
          hintmask 11101100
          385 -64 callgsubr
        </CharString>
        <CharString name="afii10109">
          50 callgsubr
          33 callsubr
          -28 callsubr
          210 115 hintmask 11100011
          350 -47 callsubr
          hintmask 11010011
          27 callsubr
          hintmask 11100011
          -55 callgsubr
          hintmask 00001100
          -50 430 -100 callsubr
        </CharString>
        <CharString name="afii10110">
          6 callgsubr
          70 -8 callsubr
          55 115 -28 -1 callsubr
          hintmask 11001000
          -103 callsubr
          hintmask 00100110
          -178 115 -45 callgsubr
          hintmask 00010110
          -105 callsubr
          hintmask 00100110
          -52 callsubr
        </CharString>
        <CharString name="afii10145">
          128 -144 -21 165 25 675 -3 callsubr
          55 105 55 165 cntrmask 00011100
          330 hmoveto
          -100 35 -65 0 vhcurveto
          35 hlineto
          0 35 65 100 vvcurveto
          280 15 hlineto
          -60 15 rlineto
          640 vlineto
          -19 callgsubr
        </CharString>
        <CharString name="afii10193">
          33 -139 -21 160 25 475 54 callsubr
          25 100 25 160 cntrmask 00011100
          40 hmoveto
          245 hlineto
          -100 35 -60 0 vhcurveto
          30 hlineto
          0 35 60 100 vvcurveto
          245 15 hlineto
          -60 15 rlineto
          440 vlineto
          -70 callgsubr
          -445 -150 445 vlineto
          25 callsubr
          endchar
        </CharString>
        <CharString name="afii61352">
          463 6 -21 36 -21 265 40 55 20 320 -20 30 42 callsubr
          95 110 -40 callgsubr
          hintmask 0111101111000000
          -87 callgsubr
          hintmask 1011101111000000
          -66 callsubr
          345 -120 rmoveto
          -125 -30 -30 -25 -25 -30 30 125 vhcurveto
          hintmask 0111011111000000
          125 30 30 25 25 30 -30 -125 vhcurveto
          110 hmoveto
          105 -70 70 -95 -95 -70 -70 -105 -105 70 -70 95 95 70 70 105 vhcurveto
          -20 -270 rmoveto
          40 -290 -40 vlineto
          endchar
        </CharString>
        <CharString name="agrave">
          -69 callsubr
          66 -21 150 -20 -62 callsubr
          hintmask 1011000011000000
          -102 callgsubr
          hintmask 1010100101000000
          -97 callsubr
          hintmask 0111000101000000
          -85 callgsubr
          hintmask 0000011000000000
          -120 195 -84 callsubr
        </CharString>
        <CharString name="amacron">
          -69 callsubr
          85 45 -62 callsubr
          hintmask 1011000110000000
          -102 callgsubr
          hintmask 1010101010000000
          -97 callsubr
          hintmask 0111001010000000
          -85 callgsubr
          hintmask 0000010000000000
          155 85 -39 callsubr
        </CharString>
        <CharString name="ampersand">
          53 -15 25 11 -21 515 -20 195 25 -10 -20 hstemhm
          20 170 -80 80 -80 150 275 25 hintmask 1011001010000000
          300 10 rmoveto
          -60 -50 50 100 130 40 35 0 hvcurveto
          180 -255 rlineto
          0 -45 -60 -65 vhcurveto
          340 365 rmoveto
          15 -185 -15 vlineto
          80 -30 rlineto
          -75 -35 -55 0 vhcurveto
          -178 250 rlineto
          hintmask 1011000110000000
          -22 30 -40 55 50 vvcurveto
          55 35 35 40 115 45 -175 0 vhcurveto
          40 hlineto
          hintmask 1010110010000000
          -85 callsubr
          hintmask 1011001010000000
          0 -55 65 -85 -135 -70 -70 -85 -55 26 -45 24 -35 vhcurveto
          55 -80 rlineto
          hintmask 1011010010000000
          0 -195 -35 -150 vvcurveto
          -105 70 -70 190 95 50 65 0 vhcurveto
          hintmask 0111010010000000
          -30 20 40 -20 55 hhcurveto
          140 -14 callsubr
          -113 160 rlineto
          0 43 75 80 vvcurveto
          endchar
        </CharString>
        <CharString name="aogonek">
          -32 -190 25 150 -62 callgsubr
          -62 callsubr
          -120 85 hintmask 1101100110000000
          275 515 rmoveto
          -130 -55 -55 -55 -45 30 -30 45 20 20 5 0 hvcurveto
          150 vlineto
          hintmask 1101011010000000
          0 20 10 30 70 40 -40 -155 vhcurveto
          -30 vlineto
          -135 -5 -145 -35 0 0 -35 -50 -60 vvcurveto
          -75 60 -60 125 103 41 87 2 1 vhcurveto
          hintmask 1011101001000000
          -7 2 22 -67 91 hhcurveto
          44 hlineto
          -12 -3 -122 -31 -81 vvcurveto
          -78 callgsubr
          43 callgsubr
          15 vlineto
          hintmask 1101101010000000
          -60 15 rlineto
          270 vlineto
          125 -90 90 -160 vhcurveto
          -40 -280 rmoveto
          0 70 10 60 vhcurveto
          -145 -8 callgsubr
          -30 -30 30 80 60 20 45 0 vhcurveto
          endchar
        </CharString>
        <CharString name="aring">
          -69 callsubr
          50 35 130 35 0 callgsubr
          -125 125 -20 50 110 50 -40 160 hintmask 1011000010010000
          -102 callgsubr
          hintmask 1010100100010000
          -97 callsubr
          hintmask 0111000100010000
          -85 callgsubr
          hintmask 0000011001100000
          130 150 -72 callsubr
        </CharString>
        <CharString name="asciicircum">
          -157 451 -21 290 -20 hstem
          30 430 rmoveto
          60 hlineto
          150 205 150 -205 rlineto
          60 hlineto
          -210 290 rlineto
          endchar
        </CharString>
        <CharString name="asciitilde">
          -122 235 110 -35 110 hstemhm
          hintmask 10000000
          380 345 rmoveto
          hintmask 01000000
          -80 -40 75 -95 hhcurveto
          hintmask 10000000
          -80 -55 -55 -130 hvcurveto
          25 hlineto
          hintmask 01000000
          40 35 35 45 vhcurveto
          hintmask 10000000
          85 35 -75 95 hhcurveto
          hintmask 01000000
          81 54 55 130 hvcurveto
          -25 hlineto
          hintmask 10000000
          -40 -35 -35 -45 vhcurveto
          endchar
        </CharString>
        <CharString name="asterisk">
          -247 391 -21 340 -20 hstem
          150 90 vstem
          195 370 rmoveto
          25 20 20 25 hvcurveto
          -30 100 70 -75 22 -13 32 5 11 23 rlinecurve
          11 22 -9 26 -22 12 -100 25 rcurveline
          100 25 22 12 9 26 -11 22 rlinecurve
          -11 23 -32 5 -22 -13 -70 -75 rcurveline
          30 100 rlineto
          25 -20 20 -25 -25 -20 -20 -25 vhcurveto
          30 -100 -70 75 -22 13 -32 -5 -11 -23 rlinecurve
          -11 -22 9 -26 22 -12 100 -25 rcurveline
          -100 -25 -22 -12 -9 -26 11 -22 rlinecurve
          11 -23 32 -5 22 13 70 75 rcurveline
          -30 -100 rlineto
          -25 20 -20 25 vhcurveto
          endchar
        </CharString>
        <CharString name="at">
          203 -100 30 145 35 365 25 150 30 hstem
          40 35 125 145 110 145 165 35 vstem
          345 260 rmoveto
          165 50 50 60 vhcurveto
          -305 vlineto
          0 -15 -60 -35 -30 -30 35 115 vhcurveto
          -270 30 rmoveto
          205 155 155 190 190 155 -155 -205 -125 -65 -65 -45 -30 -25 25 50 vhcurveto
          325 -145 vlineto
          -165 -90 -90 -150 -115 70 -70 95 90 20 80 0 0 10 -80 150 85 80 80 135 220 -170 170 -210 -210 -170 -170 -220 -220 170 -170 210 120 85 65 0 hvcurveto
          -15 25 rlineto
          0 -80 -60 -110 -190 -155 155 205 vhcurveto
          endchar
        </CharString>
        <CharString name="atilde">
          -69 callsubr
          70 70 -20 20 -20 70 -62 callsubr
          hintmask 1011000001100000
          -102 callgsubr
          hintmask 1010100010100000
          -97 callsubr
          hintmask 0111000010100000
          -85 callgsubr
          hintmask 0000001000000000
          72 70 rmoveto
          55 35 35 80 hvcurveto
          -20 hlineto
          -25 -20 -20 -25 vhcurveto
          hintmask 0000000100000000
          -82 callsubr
          hintmask 0000010000000000
          40 20 -50 60 hhcurveto
          endchar
        </CharString>
        <CharString name="b">
          -22 44 callgsubr
          490 30 -30 215 hstemhm
          80 160 165 170 hintmask 10011100
          240 445 rmoveto
          0 35 40 40 50 40 -40 -195 -190 -40 -40 -35 -60 -30 80 0 vhcurveto
          -220 600 17 callgsubr
          hintmask 01101100
          -675 10 vlineto
          115 20 80 0 hvcurveto
          hintmask 10101100
          0 40 -90 105 115 23 callsubr
          -130 -70 -45 -40 0 vhcurveto
          135 vlineto
          hintmask 10011100
          60 -30 30 -60 vhcurveto
          endchar
        </CharString>
        <CharString name="backslash">
          -287 -29 -21 800 -20 hstem
          -20 750 rmoveto
          345 -800 rlineto
          45 hlineto
          -345 800 rlineto
          endchar
        </CharString>
        <CharString name="bar">
          29 callgsubr
          -900 55 900 vlineto
          endchar
        </CharString>
        <CharString name="braceleft">
          -267 22 callgsubr
          30 235 rmoveto
          45 30 -30 -70 hvcurveto
          -205 vlineto
          -80 70 -70 125 vhcurveto
          60 25 -10 hlineto
          -50 -35 35 70 hvcurveto
          185 vlineto
          150 -160 5 0 vhcurveto
          0 160 5 150 vvcurveto
          185 vlineto
          70 35 35 50 vhcurveto
          10 25 -60 hlineto
          -125 -70 -70 -80 hvcurveto
          -205 vlineto
          -70 -30 -30 -45 vhcurveto
          endchar
        </CharString>
        <CharString name="braceright">
          -267 22 callgsubr
          340 265 rmoveto
          -45 -30 30 70 hvcurveto
          205 vlineto
          80 -70 70 -125 vhcurveto
          -60 -25 10 hlineto
          50 35 -35 -70 hvcurveto
          -185 vlineto
          -150 160 -5 0 vhcurveto
          0 -160 -5 -150 vvcurveto
          -185 vlineto
          -70 -35 -35 -50 vhcurveto
          -10 -25 60 hlineto
          125 70 70 80 hvcurveto
          205 vlineto
          70 30 30 45 vhcurveto
          endchar
        </CharString>
        <CharString name="bracketleft">
          -287 -220 25 890 25 hstem
          85 160 vstem
          85 720 rmoveto
          -940 255 25 -95 890 95 25 vlineto
          endchar
        </CharString>
        <CharString name="bracketright">
          -287 22 callgsubr
          10 720 rmoveto
          -25 95 -890 -95 -25 255 940 vlineto
          endchar
        </CharString>
        <CharString name="breve">
          -307 550 -8 callsubr
          15 -1 callsubr
          hintmask 10110000
          165 570 -45 callgsubr
          hintmask 01110000
          -105 callsubr
          hintmask 10110000
          -52 callsubr
        </CharString>
        <CharString name="brokenbar">
          29 callgsubr
          -360 55 360 vlineto
          -900 vmoveto
          360 -55 -360 vlineto
          endchar
        </CharString>
        <CharString name="bullet">
          -307 230 200 hstem
          65 200 vstem
          265 330 rmoveto
          60 -40 40 -60 -60 -40 -40 -60 -60 40 -40 60 60 40 40 60 vhcurveto
          endchar
        </CharString>
        <CharString name="c">
          -107 -15 16 callgsubr
          hstemhm
          40 55 callgsubr
          115 -20 20 hintmask 10111000
          -60 callsubr
          hintmask 11010100
          -91 callsubr
          -70 -50 50 190 vhcurveto
          hintmask 10111000
          58 callsubr
          70 vhcurveto
          endchar
        </CharString>
        <CharString name="cacute">
          -107 -15 16 callgsubr
          66 -21 150 -84 callgsubr
          -35 215 -100 callsubr
        </CharString>
        <CharString name="caron">
          -307 731 -21 150 -20 hstem
          310 860 -95 callsubr
        </CharString>
        <CharString name="ccaron">
          -107 -15 16 callgsubr
          71 -21 150 -84 callgsubr
          90 220 -95 callsubr
        </CharString>
        <CharString name="ccedilla">
          -107 24 callsubr
          320 185 -20 20 44 callsubr
          60 130 -75 75 -20 115 -20 20 hintmask 1010110010000000
          -60 callsubr
          hintmask 1011011001000000
          -67 callgsubr
          55 -55 55 57 callgsubr
          -100 -100 -165 -151 85 -99 145 -13 vhcurveto
          -62 vlineto
          hintmask 1011010101000000
          35 20 -20 -30 -30 -20 -20 -30 -20 -16 10 0 hvcurveto
          -30 vlineto
          0 26 -5 30 70 35 35 40 vhcurveto
          hintmask 0110111001000000
          53 callsubr
          35 5 vlineto
          115 75 75 80 hvcurveto
          -25 hlineto
          -65 -65 -65 -80 -70 -50 50 190 58 callsubr
          70 vhcurveto
          endchar
        </CharString>
        <CharString name="ccircumflex">
          -107 -15 16 callgsubr
          71 -21 165 -84 callgsubr
          -190 70 -102 callsubr
        </CharString>
        <CharString name="cdotaccent">
          -107 -15 25 320 185 -20 39 callsubr
          15 140 15 115 -20 20 hintmask 10101010
          -60 callsubr
          hintmask 11001001
          -91 callsubr
          -70 -50 50 190 vhcurveto
          hintmask 10101010
          58 callsubr
          70 vhcurveto
          hintmask 00010100
          -105 150 rmoveto
          -107 callgsubr
          endchar
        </CharString>
        <CharString name="cedilla">
          -436 -200 25 -25 150 50 -20 hstemhm
          51 130 -75 75 hintmask 10110000
          51 -75 rmoveto
          hintmask 10101000
          35 20 -20 -30 -30 -20 -20 -30 -20 -16 10 0 hvcurveto
          -30 vlineto
          0 26 -5 30 70 35 35 40 vhcurveto
          hintmask 01110000
          53 callsubr
          50 -35 vlineto
          endchar
        </CharString>
        <CharString name="cent">
          -107 -59 -21 65 25 320 184 66 -20 44 callsubr
          90 30 50 115 -20 20 hintmask 11111101
          300 580 rmoveto
          -65 vlineto
          -165 -4 -95 -100 -161 vvcurveto
          -162 95 -99 165 -4 vhcurveto
          -65 30 66 vlineto
          103 8 67 70 76 vvcurveto
          -25 hlineto
          -65 -65 -65 -80 vhcurveto
          485 vlineto
          hintmask 11111110
          30 20 -10 0 hvcurveto
          -150 vlineto
          -67 callgsubr
          52 -50 52 -115 5 vhcurveto
          66 vlineto
          -120 -330 rmoveto
          166 36 61 54 14 vhcurveto
          -478 vlineto
          -54 15 -36 60 162 vvcurveto
          endchar
        </CharString>
        <CharString name="circumflex">
          -307 571 62 callsubr
          hstem
          20 550 -102 callsubr
        </CharString>
        <CharString name="colon">
          -397 -10 150 220 57 callsubr
          150 vstem
          195 65 rmoveto
          -75 callgsubr
          370 vmoveto
          -36 callsubr
        </CharString>
        <CharString name="comma">
          -392 -109 32 callgsubr
          vstem
          80 -130 -90 callgsubr
          endchar
        </CharString>
        <CharString name="commaaccent">
          -452 -229 -30 callsubr
          hstem
          20 145 vstem
          55 -250 -106 callgsubr
        </CharString>
        <CharString name="copyright">
          203 -40 30 145 25 240 165 -20 20 145 30 hstemhm
          40 35 150 140 130 105 -20 20 165 35 hintmask 1101111101000000
          460 545 rmoveto
          20 15 -5 0 hvcurveto
          -135 vlineto
          hintmask 1110111011000000
          0 20 -5 20 40 25 25 40 50 -50 50 -110 -135 -80 -80 -135 -135 80 -80 140 95 65 65 70 vhcurveto
          -25 hlineto
          -60 -50 -50 -65 -50 -50 50 140 vhcurveto
          hintmask 1101111101000000
          145 50 50 45 vhcurveto
          -420 -195 -57 callsubr
        </CharString>
        <CharString name="currency">
          53 0 215 -30 30 55 30 375 25 hstemhm
          125 165 195 170 hintmask 01111100
          50 185 rmoveto
          75 -155 hlineto
          -86 callsubr
          hintmask 10111100
          -15 285 -100 callgsubr
          hintmask 01111100
          155 220 30 -220 55 55 vlineto
          230 80 80 135 135 -80 80 -230 hvcurveto
          -280 -15 hlineto
          -86 callgsubr
          -370 -75 -30 75 -55 -75 vlineto
          240 85 rmoveto
          375 55 vlineto
          80 60 -60 -130 -125 -60 -60 -80 hvcurveto
          endchar
        </CharString>
        <CharString name="d">
          -17 -15 35 -20 20 465 30 -30 215 44 callsubr
          -28 callgsubr
          hintmask 10011100
          375 100 rmoveto
          -48 callgsubr
          -35 -40 40 190 195 40 40 50 40 35 -40 0 vhcurveto
          -60 255 17 callgsubr
          -195 vlineto
          hintmask 10101100
          19 callgsubr
          hintmask 01011100
          20 callsubr
          endchar
        </CharString>
        <CharString name="dagger">
          -97 -189 -21 920 -20 hstem
          450 470 rmoveto
          -150 -50 45 200 -75 90 -75 -90 45 -200 61 callgsubr
          -65 -450 95 -150 95 150 -65 450 150 -50 60 65 rlineto
          endchar
        </CharString>
        <CharString name="daggerdbl">
          -97 -189 -21 920 -20 hstem
          300 405 rmoveto
          150 -50 60 65 -60 65 -150 -50 40 190 -70 85 -70 -85 40 -190 61 callgsubr
          -35 -130 35 -140 -130 50 -60 -65 60 -65 130 50 -55 -215 85 -100 85 100 -55 215 130 -50 rlineto
          60 65 -60 65 -130 -50 36 140 rlineto
          endchar
        </CharString>
        <CharString name="dcaron">
          123 -15 35 -20 20 451 -21 35 30 -30 215 -140 18 callgsubr
          -28 callgsubr
          55 145 hintmask 1000101100000000
          375 100 rmoveto
          -48 callgsubr
          -35 -40 40 190 195 40 40 50 40 35 -40 0 vhcurveto
          -60 255 17 callgsubr
          -195 vlineto
          hintmask 1001001100000000
          19 callgsubr
          hintmask 0100101100000000
          20 callsubr
          hintmask 0010010010000000
          180 -250 -106 callgsubr
        </CharString>
        <CharString name="dcroat">
          -12 -15 35 -20 20 445 30 65 30 -30 18 callgsubr
          -28 callgsubr
          hintmask 10101110
          315 24 callgsubr
          hintmask 10110110
          -80 -125 -30 125 -105 vlineto
          0 -45 40 -70 -130 -90 -90 -165 -165 90 -90 52 callgsubr
          hintmask 01110110
          0 20 -75 95 vhcurveto
          90 15 hlineto
          -60 15 rlineto
          530 65 30 -65 20 vlineto
          hintmask 10101110
          60 -30 30 -60 vhcurveto
          -70 -600 rmoveto
          -48 callgsubr
          -35 -40 40 180 185 40 40 50 40 35 -41 1 vhcurveto
          endchar
        </CharString>
        <CharString name="degree">
          -267 400 50 210 50 hstem
          30 75 160 75 vstem
          340 555 rmoveto
          85 -60 70 -95 -95 -60 -70 -85 -85 60 -70 95 95 60 70 85 vhcurveto
          -75 hmoveto
          -70 -35 -35 -45 -45 -35 35 70 70 35 35 45 45 35 -35 -70 vhcurveto
          endchar
        </CharString>
        <CharString name="dieresis">
          -272 560 140 hstem
          20 -20 callgsubr
          vstem
          20 630 rmoveto
          -107 callgsubr
          185 hmoveto
          -107 callgsubr
          endchar
        </CharString>
        <CharString name="divide">
          -137 75 150 85 45 85 150 hstem
          175 150 cntrmask 11100000
          470 310 rmoveto
          45 -440 -45 vlineto
          295 -160 rmoveto
          -75 callgsubr
          365 vmoveto
          -36 callsubr
        </CharString>
        <CharString name="dollar">
          -42 -59 -21 66 24 6 -21 520 -20 210 -20 95 -20 hstemhm
          50 170 70 30 -30 245 -135 170 hintmask 1101111101000000
          320 780 rmoveto
          -30 -65 hlineto
          -162 -2 -78 -79 -94 vvcurveto
          -151 137 -60 103 -62 vhcurveto
          -256 vlineto
          -1 -5 -5 0 -5 hhcurveto
          -155 -45 175 0 hvcurveto
          -40 hlineto
          hintmask 1011111101000000
          -46 callsubr
          0 63 -63 112 -2 vhcurveto
          -65 30 vlineto
          hintmask 1101111101000000
          66 vlineto
          168 8 82 86 100 vvcurveto
          142 -147 54 -103 67 vhcurveto
          246 vlineto
          131 -4 44 -170 0 vvcurveto
          hintmask 1101111010000000
          40 190 -25 hlineto
          0 -35 -20 -20 -35 vhcurveto
          hintmask 1101111101000000
          0 -54 54 -81 9 vhcurveto
          80 -578 rmoveto
          -59 -31 -43 -49 -16 vhcurveto
          231 vlineto
          46 -31 34 -34 -48 vvcurveto
          -180 445 rmoveto
          54 31 40 39 12 vhcurveto
          -222 vlineto
          -41 31 -29 36 49 vvcurveto
          endchar
        </CharString>
        <CharString name="dotaccent">
          -457 560 140 hstem
          20 140 vstem
          20 630 rmoveto
          -107 callgsubr
          endchar
        </CharString>
        <CharString name="dotlessi">
          21 -21 500 54 callsubr
          vstem
          40 500 rmoveto
          -15 vlineto
          -106 callsubr
          380 -80 callgsubr
          endchar
        </CharString>
        <CharString name="e">
          -27 callsubr
          44 callsubr
          150 165 -50 25 hintmask 11111000
          -94 callsubr
          hintmask 11110100
          -95 callgsubr
          hintmask 11111000
          0 10 25 35 -20 callsubr
          -150 -145 -100 -100 -165 -165 100 -100 170 vhcurveto
          endchar
        </CharString>
        <CharString name="eacute">
          -27 callsubr
          66 -21 150 -96 callgsubr
          -20 725 -100 callsubr
        </CharString>
        <CharString name="ebreve">
          -27 callsubr
          60 -8 callsubr
          40 170 -80 -1 callsubr
          -70 165 -50 25 hintmask 1110010010000000
          -94 callsubr
          hintmask 1110010001000000
          -95 callgsubr
          hintmask 1110010010000000
          0 10 25 35 -20 callsubr
          -150 -145 -100 -100 -165 -165 100 -100 170 vhcurveto
          hintmask 0001001100000000
          -30 610 -45 callgsubr
          hintmask 0000101100000000
          -105 callsubr
          hintmask 0001001100000000
          -52 callsubr
        </CharString>
        <CharString name="ecaron">
          -27 callsubr
          71 -21 150 -96 callgsubr
          125 730 -95 callsubr
        </CharString>
        <CharString name="ecircumflex">
          -27 callsubr
          71 -21 165 -96 callgsubr
          -170 580 -102 callsubr
        </CharString>
        <CharString name="edieresis">
          28 callgsubr
          -88 -20 callgsubr
          -87 165 -50 25 hintmask 1110100100000000
          -94 callsubr
          hintmask 1110100010000000
          -95 callgsubr
          hintmask 1110100100000000
          0 10 25 35 -20 callsubr
          -150 -145 -100 -100 -165 -165 100 -100 170 vhcurveto
          hintmask 0001011000000000
          -188 660 rmoveto
          -107 callgsubr
          185 hmoveto
          -107 callgsubr
          endchar
        </CharString>
        <CharString name="edotaccent">
          28 callgsubr
          5 140 5 165 -50 25 hintmask 11101010
          -94 callsubr
          hintmask 11101001
          -95 callgsubr
          hintmask 11101010
          0 10 25 35 -20 callsubr
          -150 -145 -100 -100 -165 -165 100 -100 170 vhcurveto
          hintmask 00010100
          -95 660 rmoveto
          -107 callgsubr
          endchar
        </CharString>
        <CharString name="egrave">
          -27 callsubr
          66 -21 150 -96 callgsubr
          -170 725 -84 callsubr
        </CharString>
        <CharString name="eight">
          -22 -15 25 680 25 hstemhm
          40 85 -55 55 -55 165 185 165 -130 80 hintmask 11010010
          535 555 rmoveto
          80 -80 80 -130 -175 -80 -80 -100 -90 55 -55 80 -45 vhcurveto
          hintmask 11100100
          -90 -30 -75 -75 -75 vvcurveto
          -100 80 -80 175 200 90 90 100 110 -70 70 -115 50 vhcurveto
          hintmask 11100010
          70 20 65 65 65 vvcurveto
          hintmask 11100100
          -115 -410 rmoveto
          -85 -50 -50 -85 -90 -70 70 85 85 50 50 70 25 vhcurveto
          105 -45 70 -70 -65 vvcurveto
          hintmask 11001010
          -185 420 rmoveto
          80 45 45 55 60 60 -60 -75 -70 -40 -40 -45 -20 vhcurveto
          -90 40 -45 45 55 vvcurveto
          endchar
        </CharString>
        <CharString name="ellipsis">
          63 -10 57 callsubr
          150 80 150 80 150 cntrmask 01110000
          195 65 rmoveto
          -75 callgsubr
          230 hmoveto
          -75 callgsubr
          230 hmoveto
          -36 callsubr
        </CharString>
        <CharString name="emacron">
          -27 callsubr
          85 45 44 callsubr
          150 165 -50 25 hintmask 11101100
          -94 callsubr
          hintmask 11101010
          -95 callgsubr
          hintmask 11101100
          0 10 25 35 -20 callsubr
          -150 -145 -100 -100 -165 -165 100 -100 170 vhcurveto
          hintmask 00010000
          105 615 -39 callsubr
        </CharString>
        <CharString name="emdash">
          143 295 40 hstem
          750 295 rmoveto
          40 -720 -40 vlineto
          endchar
        </CharString>
        <CharString name="endash">
          -77 295 40 hstem
          530 295 rmoveto
          40 -500 -40 vlineto
          endchar
        </CharString>
        <CharString name="eogonek">
          -77 -190 25 150 -24 callsubr
          44 callsubr
          -5 85 70 165 -50 25 hintmask 11110101
          205 -115 rmoveto
          -78 callgsubr
          66 54 37 26 15 vhcurveto
          80 20 50 62 65 vvcurveto
          -25 hlineto
          -65 -65 -65 -80 vhcurveto
          hintmask 11111010
          -70 -50 50 165 hvcurveto
          -10 callgsubr
          30 0 hvcurveto
          0 10 20 40 -20 callsubr
          -150 -145 -100 -100 -165 -160 95 -100 160 -5 vhcurveto
          hintmask 11110110
          -40 -16 -50 -32 -52 vvcurveto
          hintmask 11111010
          5 365 rmoveto
          205 -14 callgsubr
          -40 -120 -40 -10 -35 0 vhcurveto
          0 -50 -10 -90 vhcurveto
          endchar
        </CharString>
        <CharString name="equal">
          -177 235 45 105 45 hstem
          35 430 rmoveto
          -45 390 45 vlineto
          -390 -150 rmoveto
          -45 390 45 vlineto
          endchar
        </CharString>
        <CharString name="eth">
          -32 -15 20 450 20 205 20 42 -20 hstem
          35 -23 callgsubr
          vstem
          388 729 rmoveto
          -21 13 -40 -73 rlineto
          20 -55 -63 11 -72 hhcurveto
          -20 vlineto
          64 56 -20 -37 45 hvcurveto
          -44 -80 21 -13 41 75 48 -50 32 -63 5 -92 rlinecurve
          0 -40 75 -95 -135 -100 -99 -146 -145 100 -100 164 166 100 101 184 200 -80 130 -135 59 vhcurveto
          -145 -429 rmoveto
          175 50 50 34 56 50 -55 -160 vhcurveto
          -10 vlineto
          -175 -50 -50 -46 -44 -50 50 175 vhcurveto
          endchar
        </CharString>
        <CharString name="exclam">
          -327 -10 160 565 -20 59 callgsubr
          250 600 rmoveto
          70 -45 45 -50 -50 -45 -45 -70 vhcurveto
          80 -385 rlineto
          30 hlineto
          hintmask 11010000
          60 -145 -41 callgsubr
        </CharString>
        <CharString name="exclamdown">
          -327 -194 -21 565 160 59 callgsubr
          170 285 rmoveto
          -30 hlineto
          -80 -385 rlineto
          -70 45 -45 50 50 45 45 70 vhcurveto
          hintmask 11010000
          -20 530 -41 callgsubr
        </CharString>
        <CharString name="f">
          -212 21 -21 455 25 50 -13 callgsubr
          hstemhm
          95 160 100 115 hintmask 11101100
          95 455 rmoveto
          -425 -103 callgsubr
          425 160 25 -160 50 vlineto
          hintmask 11011100
          135 30 30 40 15 15 -5 0 vhcurveto
          -155 vlineto
          hintmask 11101100
          -67 callgsubr
          55 -55 55 -110 -130 -80 -80 -105 vhcurveto
          -50 -70 -25 vlineto
          endchar
        </CharString>
        <CharString name="five">
          -67 -15 25 -25 205 225 25 185 75 120 -20 hstemhm
          35 115 210 170 hintmask 10111110
          230 10 rmoveto
          -50 51 callsubr
          hintmask 01111110
          -50 callgsubr
          -60 70 -70 145 190 90 90 140 135 -90 90 -200 -85 -60 -45 0 vhcurveto
          27 230 rlineto
          363 195 -30 hlineto
          0 -50 -40 -10 -80 vhcurveto
          -295 hlineto
          -40 -335 20 -15 rlineto
          0 65 65 75 87 53 -55 -145 vhcurveto
          hintmask 10111110
          -150 -55 -55 -75 vhcurveto
          endchar
        </CharString>
        <CharString name="florin">
          -187 -215 25 645 25 50 -13 callgsubr
          hstemhm
          -130 25 hintmask 11101000
          65 -30 rmoveto
          -125 -19 -36 -35 -35 hhcurveto
          -45 -35 35 85 hvcurveto
          -25 hlineto
          -95 50 -50 75 135 79 80 105 16 vhcurveto
          75 485 rlineto
          160 hlineto
          5 25 rlineto
          -160 hlineto
          10 50 rlineto
          hintmask 11011000
          130 26 34 35 35 hhcurveto
          15 15 -5 0 hvcurveto
          -25 -155 rlineto
          hintmask 11101000
          0 20 -5 20 50 35 35 55 50 -45 45 -100 -140 -79 -80 -105 -21 vhcurveto
          -10 -50 rlineto
          -70 hlineto
          -5 -25 rlineto
          70 hlineto
          endchar
        </CharString>
        <CharString name="foundryicon">
          668 270 165 -149 -21 hstemhm
          195 30 0 170 330 160 0 36 0 160 hintmask 10100100
          195 270 rmoveto
          165 vlineto
          -165 -165 rlineto
          hintmask 10010100
          365 80 rmoveto
          45 -40 40 -45 -45 -40 -40 -45 vhcurveto
          hintmask 01010100
          -45 40 -40 45 45 40 40 45 vhcurveto
          80 vmoveto
          90 -165 90 165 rlineto
          hintmask 10101010
          150 -160 rmoveto
          140 hlineto
          -140 140 rlineto
          -15 -140 rmoveto
          -90 165 -90 -165 rlineto
          355 160 rmoveto
          -140 hlineto
          140 -140 rlineto
          hintmask 10100100
          36 -20 rmoveto
          140 hlineto
          -140 140 rlineto
          hintmask 01101010
          160 20 rmoveto
          -140 hlineto
          140 -140 rlineto
          14 140 rmoveto
          90 -165 90 165 rlineto
          endchar
        </CharString>
        <CharString name="four">
          -37 0 230 -45 45 480 -20 hstemhm
          305 165 hintmask 01110000
          470 35 rmoveto
          150 105 45 -105 480 -95 vlineto
          -375 -495 20 -30 rlineto
          285 -150 hlineto
          -70 -20 rlineto
          hintmask 10110000
          -15 305 15 vlineto
          -485 215 rmoveto
          250 330 rlineto
          -330 vlineto
          endchar
        </CharString>
        <CharString name="g">
          -53 callgsubr
          hstemhm
          35 75 -75 105 -80 150 140 35 callsubr
          hintmask 1011010011010000
          -46 callgsubr
          hintmask 1011100100100000
          -73 callsubr
          hintmask 0111011000100000
          -90 callsubr
          hintmask 1011011001010000
          5 callsubr
          hintmask 1011101001010000
          -51 callsubr
          hintmask 1011010011010000
          -73 callgsubr
          endchar
        </CharString>
        <CharString name="gbreve">
          -53 callgsubr
          65 -8 callsubr
          35 75 -75 105 -80 150 -80 -1 callsubr
          -80 35 callsubr
          hintmask 1011010000100101
          -46 callgsubr
          hintmask 1011100001000010
          -73 callsubr
          hintmask 0111010010000010
          -90 callsubr
          hintmask 1011010010000101
          5 callsubr
          hintmask 1011100010000101
          -51 callsubr
          hintmask 1011010000100101
          -73 callgsubr
          hintmask 0000001000011000
          395 vmoveto
          -67 callsubr
          hintmask 0000000100011000
          -105 callsubr
          hintmask 0000001000011000
          -52 callsubr
        </CharString>
        <CharString name="gcircumflex">
          -53 callgsubr
          76 37 callsubr
          35 75 -75 105 -80 150 140 35 callsubr
          hintmask 1011010000110100
          -46 callgsubr
          hintmask 1011100001001000
          -73 callsubr
          hintmask 0111010010001000
          -90 callsubr
          hintmask 1011010010010100
          5 callsubr
          hintmask 1011100010010100
          -51 callsubr
          hintmask 1011010000110100
          -73 callgsubr
          hintmask 0000001100000000
          -135 365 -102 callsubr
        </CharString>
        <CharString name="gcommaaccent">
          -53 callgsubr
          65 140 89 21 hstemhm
          35 75 -75 105 -80 150 0 145 -5 35 callsubr
          hintmask 1011010000101010
          -46 callgsubr
          hintmask 1011100001000100
          -73 callsubr
          hintmask 0111010010000100
          -90 callsubr
          hintmask 1011010010001010
          5 callsubr
          hintmask 1011100010001010
          -51 callsubr
          hintmask 1011010000101010
          -73 callgsubr
          hintmask 0000001100010000
          40 625 rmoveto
          0 -110 -35 -130 vvcurveto
          -55 30 -30 45 40 30 30 40 40 -30 30 -40 -25 -15 -15 0 vhcurveto
          15 80 70 25 0 vvcurveto
          endchar
        </CharString>
        <CharString name="gdotaccent">
          -53 callgsubr
          65 140 hstemhm
          35 75 -75 105 -80 150 0 140 0 35 callsubr
          hintmask 1011010001010100
          -46 callgsubr
          hintmask 1011100010001000
          -73 callsubr
          hintmask 0111010100001000
          -90 callsubr
          hintmask 1011010100010100
          5 callsubr
          hintmask 1011100100010100
          -51 callsubr
          hintmask 1011010001010100
          -73 callgsubr
          hintmask 0000001000100000
          -70 445 rmoveto
          -107 callgsubr
          endchar
        </CharString>
        <CharString name="germandbls">
          53 -15 25 6 -21 26 -21 690 25 hstemhm
          90 160 70 155 -70 70 35 25 -25 155 hintmask 1001110100000000
          470 10 rmoveto
          -75 -45 155 0 hvcurveto
          -40 hlineto
          hintmask 0101110100000000
          -170 25 vlineto
          0 35 5 20 30 vhcurveto
          hintmask 1001101010000000
          0 30 -45 70 115 60 60 85 vhcurveto
          140 -190 10 100 vvcurveto
          hintmask 0011101100000000
          70 60 10 110 vvcurveto
          65 -80 80 -125 -150 -90 -90 -125 vhcurveto
          -470 vlineto
          -86 callsubr
          -15 220 500 vlineto
          155 35 35 45 40 35 -35 -65 vhcurveto
          hintmask 1001110100000000
          -100 -85 -10 -110 -150 190 -10 -130 vvcurveto
          -50 -20 -20 -20 vhcurveto
          endchar
        </CharString>
        <CharString name="grave">
          -417 571 -21 150 -20 hstem
          20 700 -84 callsubr
        </CharString>
        <CharString name="greater">
          -132 -43 callsubr
          hstem
          35 500 rmoveto
          -55 vlineto
          345 -195 -345 -195 rlineto
          -55 vlineto
          445 250 rlineto
          endchar
        </CharString>
        <CharString name="guillemotleft">
          -197 41 -21 460 -20 hstem
          275 20 rmoveto
          25 25 -185 205 185 205 -25 25 -260 -230 rlineto
          370 -175 rmoveto
          25 25 -120 150 120 150 -25 25 -190 -175 rlineto
          endchar
        </CharString>
        <CharString name="guillemotright">
          -197 41 -21 460 -20 hstem
          425 250 rmoveto
          -260 230 -25 -25 185 -205 -185 -205 25 -25 rlineto
          80 230 rmoveto
          -190 175 -25 -25 120 -150 -120 -150 25 -25 rlineto
          endchar
        </CharString>
        <CharString name="guilsinglleft">
          -272 31 -21 480 -20 hstem
          15 250 rmoveto
          290 -240 30 35 -235 205 235 205 -30 35 rlineto
          endchar
        </CharString>
        <CharString name="guilsinglright">
          -272 31 -21 480 -20 hstem
          60 490 rmoveto
          -30 -35 235 -205 -235 -205 30 -35 290 240 rlineto
          endchar
        </CharString>
        <CharString name="h">
          28 21 -21 480 35 -35 220 hstemhm
          100 48 callgsubr
          hintmask 11011000
          -77 callgsubr
          -90 -40 -65 0 vhcurveto
          160 vlineto
          hintmask 10111000
          -19 callsubr
          endchar
        </CharString>
        <CharString name="hbar">
          33 21 -21 450 35 60 25 -25 155 hstemhm
          105 48 callgsubr
          hintmask 11101100
          390 -64 callgsubr
        </CharString>
        <CharString name="hcircumflex">
          28 21 -21 480 35 -35 220 61 37 callsubr
          100 48 callgsubr
          hintmask 11000110
          -77 callgsubr
          -90 -40 -65 0 vhcurveto
          160 vlineto
          hintmask 10100110
          -19 callsubr
          hintmask 00011000
          -405 390 -102 callsubr
        </CharString>
        <CharString name="hungarumlaut">
          -322 550 150 hstem
          65 700 -68 callsubr
        </CharString>
        <CharString name="hyphen">
          -167 300 45 hstem
          35 61 callsubr
        </CharString>
        <CharString name="i">
          -54 callgsubr
        </CharString>
        <CharString name="iacute">
          -43 callsubr
          91 -21 150 -20 hstemhm
          -28 callsubr
          hintmask 11001000
          40 500 rmoveto
          -15 vlineto
          -106 callsubr
          380 -80 callgsubr
          hintmask 00110000
          5 200 -100 callsubr
        </CharString>
        <CharString name="ibreve">
          -43 callsubr
          85 -8 callsubr
          20 95 -15 160 -35 95 hintmask 11000100
          40 500 rmoveto
          -15 vlineto
          -106 callsubr
          380 -80 callgsubr
          hintmask 00101010
          85 vmoveto
          -67 callsubr
          hintmask 00011010
          -105 callsubr
          hintmask 00101010
          -52 callsubr
        </CharString>
        <CharString name="icircumflex">
          -43 callsubr
          101 37 callsubr
          -28 callsubr
          hintmask 11001000
          40 500 rmoveto
          -15 vlineto
          -106 callsubr
          380 -80 callgsubr
          hintmask 00110000
          -145 60 -102 callsubr
        </CharString>
        <CharString name="idieresis">
          -43 callsubr
          90 140 hstemhm
          -2 140 -38 160 -77 140 hintmask 11001000
          40 500 rmoveto
          -15 vlineto
          -106 callsubr
          380 -80 callgsubr
          hintmask 00110100
          -172 140 rmoveto
          -107 callgsubr
          185 hmoveto
          -107 callgsubr
          endchar
        </CharString>
        <CharString name="igrave">
          -43 callsubr
          91 -21 150 -20 hstemhm
          -28 callsubr
          hintmask 11001000
          40 500 rmoveto
          -15 vlineto
          -106 callsubr
          380 -80 callgsubr
          hintmask 00110000
          -145 200 -84 callsubr
        </CharString>
        <CharString name="ij">
          3 -215 20 -20 170 66 -21 475 25 -12 callgsubr
          hstemhm
          -28 callsubr
          -60 115 90 160 hintmask 01111011
          315 -50 rmoveto
          -50 callgsubr
          -55 40 -40 105 140 80 80 105 vhcurveto
          440 -80 callgsubr
          -435 -15 hlineto
          hintmask 10111101
          -106 callsubr
          445 145 -505 vlineto
          -130 -35 -35 -35 vhcurveto
          hintmask 10111011
          -10 -10 5 0 hvcurveto
          85 815 rmoveto
          -65 callgsubr
          -305 hmoveto
          -65 callgsubr
          endchar
        </CharString>
        <CharString name="imacron">
          -43 callsubr
          120 45 hstemhm
          -28 callsubr
          hintmask 11010000
          40 500 rmoveto
          -15 vlineto
          -106 callsubr
          380 -80 callgsubr
          hintmask 00100000
          130 100 -39 callsubr
        </CharString>
        <CharString name="iogonek">
          -190 25 186 -22 callsubr
          60 170 hstemhm
          80 85 -65 65 -65 160 hintmask 11110100
          40 40 callsubr
          -2 callsubr
          -15 174 vlineto
          hintmask 11111000
          -12 -3 -122 -31 -81 vvcurveto
          -78 callgsubr
          vhcurveto
          hintmask 11110010
          43 callgsubr
          60 15 hlineto
          -60 15 rlineto
          380 -80 callgsubr
          -75 125 rmoveto
          -65 callgsubr
          endchar
        </CharString>
        <CharString name="itilde">
          -294 -43 callsubr
          95 -4 callsubr
          103 160 hintmask 11000100
          43 500 rmoveto
          -15 vlineto
          -106 callsubr
          380 -80 callgsubr
          hintmask 00010000
          47 75 -83 callgsubr
        </CharString>
        <CharString name="j">
          -68 callgsubr
        </CharString>
        <CharString name="jcircumflex">
          -215 20 -20 13 callgsubr
          106 37 callsubr
          -110 115 90 160 hintmask 01100110
          5 -50 rmoveto
          -50 callgsubr
          -55 40 -40 105 140 80 80 105 vhcurveto
          440 -80 callgsubr
          55 callsubr
          -86 callgsubr
          -500 vlineto
          hintmask 10100110
          -130 -35 -35 -35 -10 -10 5 0 vhcurveto
          hintmask 00011000
          5 755 -102 callsubr
        </CharString>
        <CharString name="k">
          -37 -43 callsubr
          220 54 callsubr
          vstem
          -58 callgsubr
          endchar
        </CharString>
        <CharString name="kcommaaccent">
          -37 -274 -30 callsubr
          66 -22 callsubr
          220 -20 hstemhm
          -28 callsubr
          0 145 hintmask 00111100
          -58 callgsubr
          hintmask 11000010
          125 -995 -106 callgsubr
        </CharString>
        <CharString name="kgreenlandic">
          -37 21 -21 500 54 callsubr
          vstem
          40 500 rmoveto
          -15 vlineto
          -106 callsubr
          190 vlineto
          85 -135 rlineto
          -50 31 34 -35 70 hhcurveto
          130 -14 callsubr
          -195 305 115 120 -88 callsubr
          75 -30 -185 -195 rlineto
          150 -80 callgsubr
          endchar
        </CharString>
        <CharString name="l">
          21 -21 700 54 callsubr
          vstem
          40 24 callgsubr
          -640 -103 callgsubr
          580 -80 callgsubr
          endchar
        </CharString>
        <CharString name="lacute">
          -26 callsubr
          91 -21 150 -20 hstemhm
          -28 callsubr
          hintmask 11001000
          40 24 callgsubr
          -640 -103 callgsubr
          580 -80 callgsubr
          hintmask 00110000
          7 200 -100 callsubr
        </CharString>
        <CharString name="lcaron">
          -152 21 -21 471 -30 callsubr
          0 -20 hstemhm
          -28 callsubr
          55 145 hintmask 10011000
          40 24 callgsubr
          -640 -103 callgsubr
          580 -80 callgsubr
          hintmask 01100100
          180 -250 -106 callgsubr
        </CharString>
        <CharString name="lcommaaccent">
          -284 -30 callsubr
          76 7 callsubr
          hstemhm
          -28 callsubr
          -147 145 hintmask 00111000
          40 24 callgsubr
          -640 -103 callgsubr
          580 -80 callgsubr
          hintmask 11000100
          -22 -1005 -106 callgsubr
        </CharString>
        <CharString name="ldot">
          -152 21 -21 280 140 280 -20 hstemhm
          -28 callsubr
          55 140 hintmask 10110000
          40 24 callgsubr
          -640 -103 callgsubr
          580 -80 callgsubr
          hintmask 01001000
          145 -350 rmoveto
          -107 callgsubr
          endchar
        </CharString>
        <CharString name="less">
          -132 -43 callsubr
          hstem
          25 250 rmoveto
          445 -250 rlineto
          55 vlineto
          -345 195 345 195 rlineto
          55 vlineto
          endchar
        </CharString>
        <CharString name="logicalnot">
          -167 241 -21 100 45 hstem
          395 45 vstem
          395 220 rmoveto
          45 145 -410 -45 365 hlineto
          endchar
        </CharString>
        <CharString name="lslash">
          -272 -26 callsubr
          hstem
          105 160 vstem
          45 24 callgsubr
          -318 vlineto
          -85 -52 rlineto
          -35 vlineto
          85 52 rlineto
          -287 -103 callgsubr
          386 vlineto
          80 49 rlineto
          35 vlineto
          -80 -49 rlineto
          159 -80 callgsubr
          endchar
        </CharString>
        <CharString name="m">
          313 16 callsubr
          hstemhm
          100 -10 callgsubr
          -10 callgsubr
          160 cntrmask 00011100
          hintmask 10111100
          710 90 rmoveto
          -60 30 -30 60 vhcurveto
          130 15 hlineto
          -60 15 rlineto
          320 vlineto
          90 -75 75 -110 -95 -40 -95 0 vhcurveto
          55 -30 -60 40 -80 hhcurveto
          -95 -40 -90 0 hvcurveto
          hintmask 11011100
          0 -20 75 -95 vhcurveto
          -90 -15 hlineto
          -106 callsubr
          370 vlineto
          0 30 80 50 30 35 -35 -95 vhcurveto
          -320 -103 callgsubr
          370 vlineto
          0 30 80 50 30 35 -35 -95 vhcurveto
          endchar
        </CharString>
        <CharString name="macron">
          -337 655 45 hstem
          280 655 -39 callsubr
        </CharString>
        <CharString name="mu">
          18 -179 -21 195 35 470 -20 hstem
          90 48 callgsubr
          vstem
          160 -200 rmoveto
          60 30 30 60 hvcurveto
          140 vlineto
          0 25 -35 50 75 30 90 0 0 20 -90 115 vhcurveto
          10 475 hlineto
          -70 callgsubr
          -360 -8 callgsubr
          -35 -40 40 90 vhcurveto
          250 -80 callgsubr
          55 callsubr
          -86 callgsubr
          -79 callgsubr
          vlineto
          endchar
        </CharString>
        <CharString name="multiply">
          -231 188 -21 346 -20 hstem
          376 198 rmoveto
          -141 142 141 141 -32 32 -141 -141 -141 141 -32 -32 141 -141 -141 -142 32 -31 141 141 141 -141 rlineto
          endchar
        </CharString>
        <CharString name="n">
          28 16 callsubr
          hstemhm
          100 48 callgsubr
          hintmask 10111000
          -77 callgsubr
          -105 -40 -90 0 vhcurveto
          hintmask 11011000
          0 -20 75 -95 vhcurveto
          -90 -15 hlineto
          -106 callsubr
          370 vlineto
          0 30 80 60 35 40 -40 -90 vhcurveto
          endchar
        </CharString>
        <CharString name="nacute">
          28 16 callsubr
          6 callsubr
          100 48 callgsubr
          hintmask 10100110
          -77 callgsubr
          -105 -40 -90 0 vhcurveto
          hintmask 11000110
          0 -20 75 -95 vhcurveto
          -90 -15 hlineto
          -106 callsubr
          370 vlineto
          0 30 80 60 35 40 -40 -90 vhcurveto
          hintmask 00011000
          -78 360 -100 callsubr
        </CharString>
        <CharString name="nbspace">
          -866 endchar
        </CharString>
        <CharString name="ncaron">
          28 16 callsubr
          71 -21 150 -20 hstemhm
          100 48 callgsubr
          hintmask 10100110
          -77 callgsubr
          -105 -40 -90 0 vhcurveto
          hintmask 11000110
          0 -20 75 -95 vhcurveto
          -90 -15 hlineto
          -106 callsubr
          370 vlineto
          0 30 80 60 35 40 -40 -90 vhcurveto
          hintmask 00011000
          47 365 -95 callsubr
        </CharString>
        <CharString name="ncommaaccent">
          28 -274 -30 callsubr
          66 34 callsubr
          hstemhm
          -28 callsubr
          30 145 -10 160 hintmask 00101101
          -77 callgsubr
          -105 -40 -90 0 vhcurveto
          hintmask 00110101
          0 -20 75 -95 vhcurveto
          -90 -15 hlineto
          -106 callsubr
          370 vlineto
          0 30 80 60 35 40 -40 -90 vhcurveto
          hintmask 11000010
          -100 -645 -106 callgsubr
        </CharString>
        <CharString name="nine">
          -17 -15 25 -25 205 80 25 400 20 hstemhm
          45 170 -135 115 -115 135 180 175 hintmask 10110011
          300 695 rmoveto
          45 50 -50 -185 -120 -40 -45 -50 -40 -50 50 150 150 50 50 35 hvcurveto
          -45 -685 rmoveto
          hintmask 01110101
          -30 51 callsubr
          -50 callgsubr
          -60 70 -70 125 180 115 120 245 255 -110 110 -160 vhcurveto
          hintmask 10111001
          -165 -90 -90 -140 -125 90 -90 150 80 35 60 0 -265 -55 -55 -90 hvcurveto
          endchar
        </CharString>
        <CharString name="ntilde">
          28 16 callsubr
          60 -4 callsubr
          100 48 callgsubr
          hintmask 10100011
          -77 callgsubr
          -105 -40 -90 0 vhcurveto
          hintmask 11000011
          0 -20 75 -95 vhcurveto
          -90 -15 hlineto
          -106 callsubr
          370 vlineto
          0 30 80 60 35 40 -40 -90 vhcurveto
          hintmask 00001000
          -35 225 -74 callsubr
        </CharString>
        <CharString name="numbersign">
          13 0 235 -50 50 230 50 -50 235 hstemhm
          hintmask 10010000
          325 700 rmoveto
          -60 hlineto
          hintmask 10100000
          -48 -185 rlineto
          -147 -50 134 hlineto
          -59 -230 rlineto
          -125 hlineto
          hintmask 01100000
          -50 112 vlineto
          38 callgsubr
          180 hlineto
          38 callgsubr
          148 50 -135 hlineto
          59 230 rlineto
          126 50 -113 hlineto
          hintmask 10010000
          48 185 rlineto
          -60 hlineto
          hintmask 10100000
          -48 -185 rlineto
          -180 hlineto
          hintmask 10010000
          -13 -50 rmoveto
          180 hlineto
          -59 -230 rlineto
          -180 hlineto
          endchar
        </CharString>
        <CharString name="o">
          -1 callgsubr
          hstem
          40 -23 callgsubr
          vstem
          305 -104 callgsubr
          endchar
        </CharString>
        <CharString name="oacute">
          -37 7 callgsubr
          6 callsubr
          35 -23 callgsubr
          hintmask 11001100
          300 -104 callgsubr
          hintmask 00110000
          5 195 -100 callsubr
        </CharString>
        <CharString name="obreve">
          -1 callgsubr
          60 -8 callsubr
          40 170 -55 -1 callsubr
          -55 170 hintmask 11001001
          305 -104 callgsubr
          hintmask 00100110
          80 vmoveto
          -67 callsubr
          hintmask 00010110
          -105 callsubr
          hintmask 00100110
          -52 callsubr
        </CharString>
        <CharString name="ocircumflex">
          -1 callgsubr
          71 -21 165 32 callsubr
          hintmask 11001100
          305 -104 callgsubr
          hintmask 00110000
          -145 50 -102 callsubr
        </CharString>
        <CharString name="odieresis">
          -27 -15 20 490 39 callsubr
          -68 -20 callgsubr
          -67 170 hintmask 11010010
          305 -104 callgsubr
          hintmask 00101100
          -163 130 rmoveto
          -107 callgsubr
          185 hmoveto
          -107 callgsubr
          endchar
        </CharString>
        <CharString name="oe">
          278 -26 callgsubr
          44 callsubr
          190 165 150 165 -50 25 hintmask 11111010
          665 -15 rmoveto
          -95 callgsubr
          hintmask 11111100
          0 10 20 40 -20 callsubr
          -140 -130 -40 -90 0 0 -40 90 -145 -155 -100 -100 -165 -165 100 -100 155 145 40 90 0 0 50 -90 135 vhcurveto
          -360 20 rmoveto
          -45 -50 50 195 58 callsubr
          45 45 50 -50 8 callgsubr
          -50 -50 -45 hvcurveto
          260 245 rmoveto
          205 -14 callgsubr
          -40 -120 -40 -10 -35 0 vhcurveto
          0 -50 -10 -90 vhcurveto
          endchar
        </CharString>
        <CharString name="ogonek">
          -417 -190 25 165 -20 hstem
          20 85 vstem
          155 hmoveto
          0 -135 -30 -85 vvcurveto
          -78 callgsubr
          43 callgsubr
          endchar
        </CharString>
        <CharString name="ograve">
          -1 callgsubr
          66 -21 150 32 callsubr
          hintmask 11001100
          305 -104 callgsubr
          hintmask 00110000
          -145 195 -84 callsubr
        </CharString>
        <CharString name="ohungarumlaut">
          -1 callgsubr
          45 150 -9 callsubr
          hintmask 11011000
          305 -104 callgsubr
          hintmask 00100000
          -53 195 -68 callsubr
        </CharString>
        <CharString name="omacron">
          -1 callgsubr
          85 45 -9 callsubr
          hintmask 11011000
          305 -104 callgsubr
          hintmask 00100000
          130 85 -39 callsubr
        </CharString>
        <CharString name="one">
          -222 -26 callsubr
          hstem
          140 165 vstem
          305 700 rmoveto
          -108 hlineto
          -182 -165 20 -25 105 74 rlineto
          -549 vlineto
          -70 -20 rlineto
          -15 305 15 vlineto
          -70 20 rlineto
          endchar
        </CharString>
        <CharString name="onehalf">
          50 0 105 -30 30 595 -20 hstemhm
          95 110 280 110 hintmask 10111000
          590 700 rmoveto
          -25 callsubr
          -440 hmoveto
          -32 callgsubr
          hintmask 01111000
          135 -320 rmoveto
          145 -50 hlineto
          -40 -10 rlineto
          hintmask 10111000
          -15 190 15 vlineto
          -40 10 rlineto
          hintmask 01111000
          12 callgsubr
          endchar
        </CharString>
        <CharString name="onequarter">
          68 0 45 165 130 360 -20 hstemhm
          95 110 185 85 90 110 vstemhm
          580 700 rmoveto
          -25 callsubr
          -430 hmoveto
          -32 callgsubr
          330 -55 rmoveto
          -24 callgsubr
          hvcurveto
          100 vlineto
          hintmask 11111100
          0 21 5 19 25 25 -25 -35 vhcurveto
          -110 -175 0 -120 vvcurveto
          -30 280 125 -20 vlineto
          0 -35 -35 -5 -45 vhcurveto
          -190 hlineto
          60 75 195 0 120 vvcurveto
          55 -45 45 -95 vhcurveto
          endchar
        </CharString>
        <CharString name="onesuperior">
          -352 391 -21 330 -20 hstem
          105 110 vstem
          215 700 rmoveto
          -32 callgsubr
          endchar
        </CharString>
        <CharString name="ordfeminine">
          -222 360 25 -25 185 35 130 -20 20 hstemhm
          30 110 -90 90 95 110 hintmask 10100110
          155 520 rmoveto
          0 40 5 40 vhcurveto
          -87 vlineto
          0 -20 -53 -30 -20 -25 25 50 35 15 25 0 vhcurveto
          40 190 rmoveto
          -24 callgsubr
          hvcurveto
          100 vlineto
          hintmask 10011010
          0 21 5 19 vhcurveto
          hintmask 01100110
          35 25 -25 -85 hvcurveto
          -35 vlineto
          -90 -95 -30 0 hvcurveto
          hintmask 10101010
          0 -20 -25 -40 vvcurveto
          -50 40 -40 85 70 20 60 0 0 10 -50 70 vhcurveto
          60 15 hlineto
          -40 10 rlineto
          165 vlineto
          95 -55 55 -95 vhcurveto
          endchar
        </CharString>
        <CharString name="ordmasculine">
          -247 360 20 310 20 hstem
          30 110 -40 callgsubr
          vstem
          250 535 rmoveto
          -89 callsubr
          endchar
        </CharString>
        <CharString name="oslash">
          -27 -15 20 16 -21 495 20 -15 32 callsubr
          hintmask 10011100
          495 500 rmoveto
          -27 -33 rlineto
          hintmask 01101100
          4 callsubr
          hintmask 10011100
          -40 callsubr
          hintmask 10101100
          13 callsubr
          endchar
        </CharString>
        <CharString name="oslashacute">
          -27 -15 20 16 -21 495 20 -15 -20 101 -21 150 32 callsubr
          hintmask 10010011
          495 500 rmoveto
          -27 -33 rlineto
          hintmask 01100011
          4 callsubr
          hintmask 10010011
          -40 callsubr
          hintmask 10100011
          13 callsubr
          hintmask 00001100
          90 460 -100 callsubr
        </CharString>
        <CharString name="otilde">
          -1 callgsubr
          60 70 -20 20 -20 70 -9 callsubr
          hintmask 11000110
          305 -104 callgsubr
          hintmask 00010000
          47 60 -83 callgsubr
        </CharString>
        <CharString name="p">
          -69 callgsubr
        </CharString>
        <CharString name="paragraph">
          -47 -179 -21 870 30 hstem
          270 55 105 55 vstem
          325 -200 rmoveto
          870 105 -870 55 870 80 30 -295 vlineto
          -155 -80 -80 -135 -135 80 -80 155 hvcurveto
          -470 vlineto
          endchar
        </CharString>
        <CharString name="parenleft">
          -282 -219 -21 1010 -20 hstem
          50 170 vstem
          220 265 rmoveto
          205 40 180 80 105 vhcurveto
          -10 15 rlineto
          -150 -100 57 callgsubr
          -235 vvcurveto
          -235 130 -170 150 -100 vhcurveto
          10 15 rlineto
          -80 105 -40 180 205 vvcurveto
          endchar
        </CharString>
        <CharString name="parenright">
          -282 -219 -21 1010 -20 hstem
          135 170 vstem
          135 265 rmoveto
          -205 -40 -180 -80 -105 vhcurveto
          10 -15 rlineto
          150 100 130 170 235 vvcurveto
          235 -130 170 -150 100 vhcurveto
          -10 -15 rlineto
          80 -105 40 -180 -205 vvcurveto
          endchar
        </CharString>
        <CharString name="percent">
          113 15 callgsubr
          30 110 -40 callgsubr
          hintmask 0111011111000000
          605 700 rmoveto
          -25 callsubr
          -50 -535 rmoveto
          hintmask 1011101111000000
          -89 callsubr
          -470 370 rmoveto
          -89 callsubr
          endchar
        </CharString>
        <CharString name="period">
          -397 -10 57 callsubr
          150 vstem
          195 65 rmoveto
          -36 callsubr
        </CharString>
        <CharString name="periodcentered">
          -357 270 160 hstem
          65 150 vstem
          215 350 -41 callgsubr
        </CharString>
        <CharString name="perthousand">
          453 15 callgsubr
          10 110 -40 callgsubr
          30 110 -40 callgsubr
          hintmask 0111011111110000
          605 700 rmoveto
          -25 callsubr
          -70 -535 rmoveto
          hintmask 1011101111110000
          -89 callsubr
          -450 370 rmoveto
          -89 callsubr
          590 -370 rmoveto
          -89 callsubr
          endchar
        </CharString>
        <CharString name="plus">
          -122 116 -21 215 45 215 -20 hstem
          235 45 vstem
          280 95 rmoveto
          215 200 45 -200 215 -45 -215 -200 -45 200 -215 vlineto
          endchar
        </CharString>
        <CharString name="plusminus">
          -132 50 45 225 45 205 -20 hstem
          230 45 vstem
          275 135 rmoveto
          185 200 45 -200 205 -45 -205 -200 -45 200 -185 vlineto
          -190 -40 rmoveto
          -45 425 45 vlineto
          endchar
        </CharString>
        <CharString name="q">
          -22 -200 215 -30 30 465 35 -10 -20 44 callsubr
          -28 callgsubr
          hintmask 10101100
          375 55 rmoveto
          0 -35 -40 -40 -50 -40 40 195 190 40 40 35 60 30 -80 0 vhcurveto
          -570 vmoveto
          -104 callsubr
          hintmask 10011100
          675 -10 vlineto
          -115 -20 -80 0 hvcurveto
          hintmask 01101100
          0 -40 90 -105 -115 -90 -90 -175 -175 90 -90 130 70 45 40 0 vhcurveto
          endchar
        </CharString>
        <CharString name="question">
          -77 -10 160 360 205 -25 25 hstemhm
          15 115 40 150 -93 45 78 175 hintmask 10110110
          210 690 rmoveto
          hintmask 11010110
          91 49 -50 -130 -120 -50 -50 -75 -30 hvcurveto
          5 -95 rlineto
          40 hlineto
          5 80 rlineto
          170 25 80 80 110 vvcurveto
          115 -90 90 -205 -145 2 callsubr
          hintmask 10110110
          0 30 15 50 vhcurveto
          hintmask 11011010
          110 -620 -41 callgsubr
        </CharString>
        <CharString name="questiondown">
          -77 -215 25 -25 205 360 160 hstemhm
          35 175 30 150 -103 45 98 115 hintmask 10110110
          350 -190 rmoveto
          hintmask 01110110
          -91 -49 50 130 120 50 50 75 30 hvcurveto
          -5 95 rlineto
          -40 hlineto
          -5 -80 rlineto
          -170 -25 -80 -80 -110 vvcurveto
          -115 90 -90 205 145 70 70 60 45 -30 30 -45 -20 -20 -5 0 vhcurveto
          -160 vlineto
          hintmask 10110110
          0 -30 -15 -50 vhcurveto
          hintmask 10111010
          -110 620 rmoveto
          -45 34 callgsubr
          45 45 37 callgsubr
          -45 vhcurveto
          endchar
        </CharString>
        <CharString name="quotedbl">
          -267 466 -21 265 -20 hstem
          105 710 rmoveto
          -18 callgsubr
          160 hmoveto
          -18 callgsubr
          endchar
        </CharString>
        <CharString name="quotedblbase">
          -202 -109 32 callgsubr
          35 155 vstem
          80 -130 -90 callgsubr
          200 -25 -90 callgsubr
          endchar
        </CharString>
        <CharString name="quotedblleft">
          -202 50 callsubr
          35 155 vstem
          355 710 -49 callgsubr
          -200 25 -49 callgsubr
          endchar
        </CharString>
        <CharString name="quotedblright">
          -202 461 32 callgsubr
          35 155 vstem
          80 440 -90 callgsubr
          200 -25 -90 callgsubr
          endchar
        </CharString>
        <CharString name="quoteleft">
          -392 50 callsubr
          vstem
          165 710 -49 callgsubr
          endchar
        </CharString>
        <CharString name="quoteright">
          -392 461 32 callgsubr
          vstem
          80 440 -90 callgsubr
          endchar
        </CharString>
        <CharString name="quotesinglbase">
          -392 -109 32 callgsubr
          vstem
          80 -130 -90 callgsubr
          endchar
        </CharString>
        <CharString name="quotesingle">
          -427 466 -21 265 -20 hstem
          105 710 rmoveto
          -18 callgsubr
          endchar
        </CharString>
        <CharString name="r">
          -132 21 -21 335 170 -5 -20 hstemhm
          -28 callsubr
          125 115 hintmask 11011000
          -51 callgsubr
          hintmask 10111000
          0 -20 75 -95 vhcurveto
          -90 -15 hlineto
          -106 callsubr
          370 vlineto
          0 45 80 80 vhcurveto
          endchar
        </CharString>
        <CharString name="racute">
          -63 callsubr
          -115 230 -100 callsubr
        </CharString>
        <CharString name="rcaron">
          -63 callsubr
          30 230 -95 callsubr
        </CharString>
        <CharString name="rcommaaccent">
          -132 -274 -30 callsubr
          66 -21 335 170 -5 -20 hstemhm
          -28 callsubr
          -152 145 132 115 hintmask 00110101
          -51 callgsubr
          hintmask 00101101
          0 -20 75 -95 vhcurveto
          -90 -15 hlineto
          -106 callsubr
          370 vlineto
          0 45 80 80 vhcurveto
          hintmask 11000010
          -242 -775 -106 callgsubr
        </CharString>
        <CharString name="registered">
          203 -40 30 150 205 190 25 150 30 hstem
          40 35 185 130 90 140 145 35 vstem
          660 140 rmoveto
          15 vlineto
          -35 10 -50 110 rlineto
          -25 55 -70 5 0 0 140 5 100 vvcurveto
          70 -50 50 -170 vhcurveto
          -190 -15 hlineto
          50 -10 rlineto
          -370 vlineto
          -50 -10 rlineto
          -15 230 15 vlineto
          -50 10 rlineto
          160 20 vlineto
          55 -125 rlineto
          -30 13 32 -30 50 hhcurveto
          -160 395 rmoveto
          45 35 -35 -60 -60 -27 -35 -53 hvcurveto
          -10 190 hlineto
          -350 -185 -57 callsubr
        </CharString>
        <CharString name="ring">
          -367 500 35 130 35 hstem
          30 50 110 50 vstem
          240 600 -72 callsubr
        </CharString>
        <CharString name="s">
          26 callsubr
          0 callgsubr
          125 136 -136 165 hintmask 10101010
          -78 callsubr
          hintmask 10011100
          -44 callsubr
          hintmask 10101100
          -81 callgsubr
          hintmask 01101100
          -33 callgsubr
          hintmask 10101100
          0 55 -55 95 vhcurveto
          endchar
        </CharString>
        <CharString name="sacute">
          26 callsubr
          96 -21 150 -93 callgsubr
          -28 725 -100 callsubr
        </CharString>
        <CharString name="scaron">
          26 callsubr
          101 -21 150 -93 callgsubr
          135 730 -95 callsubr
        </CharString>
        <CharString name="scedilla">
          -97 -200 25 -25 150 35 42 callgsubr
          hstemhm
          55 165 23 130 -75 75 -33 141 -141 165 hintmask 1010101100000000
          243 -75 rmoveto
          hintmask 1010101010000000
          35 20 -20 -30 -30 -20 -20 -30 -20 -16 10 0 hvcurveto
          -30 vlineto
          0 26 -5 30 70 35 35 40 vhcurveto
          hintmask 0110101000100000
          53 callsubr
          35 vlineto
          167 60 60 85 hvcurveto
          160 -285 10 120 vvcurveto
          40 30 30 35 110 46 -155 0 vhcurveto
          hintmask 1010011001000000
          -44 callsubr
          hintmask 1010101001000000
          0 -56 55 -80 -150 -60 -60 -75 vhcurveto
          -170 285 -10 -110 vvcurveto
          -50 -30 -30 -55 -125 -45 155 0 vhcurveto
          -40 hlineto
          hintmask 1001101100000000
          -33 callgsubr
          0 42 -43 76 -10 vhcurveto
          endchar
        </CharString>
        <CharString name="scircumflex">
          26 callsubr
          101 -21 165 -93 callgsubr
          -153 580 -102 callsubr
        </CharString>
        <CharString name="scommaaccent">
          -97 -284 -30 callsubr
          40 42 callgsubr
          0 callgsubr
          -5 145 -15 136 -136 165 hintmask 0010101001000000
          -78 callsubr
          hintmask 0010011010000000
          -44 callsubr
          hintmask 0010101010000000
          -81 callgsubr
          hintmask 0001101010000000
          -33 callgsubr
          hintmask 0010101010000000
          0 55 -55 95 vhcurveto
          hintmask 1100000100000000
          -30 -290 -106 callgsubr
        </CharString>
        <CharString name="section">
          -117 -210 20 715 -13 callgsubr
          hstemhm
          40 120 -100 130 -130 165 90 165 -150 150 -135 115 -115 135 hintmask 1010010001000000
          230 -210 rmoveto
          180 70 70 95 99 -67 48 -68 38 hvcurveto
          95 20 40 55 50 170 -255 0 145 vvcurveto
          70 40 40 40 20 20 -5 0 vhcurveto
          -155 vlineto
          hintmask 1100100010000000
          -67 callgsubr
          55 -55 55 -120 -155 -70 -70 -90 -90 55 -50 60 -40 vhcurveto
          hintmask 1101001000000000
          -93 -23 -42 -55 -57 -170 275 0 -140 vvcurveto
          -75 -40 -40 -65 -30 -20 10 0 vhcurveto
          150 vlineto
          hintmask 1100100100000000
          -50 callgsubr
          -55 55 -55 130 vhcurveto
          90 360 rmoveto
          0 -130 55 85 vvcurveto
          50 10 1 callsubr
          0 130 -55 -85 vvcurveto
          -50 -10 -15 0 vhcurveto
          endchar
        </CharString>
        <CharString name="semicolon">
          -392 -109 -21 120 150 220 57 callsubr
          155 vstem
          80 -130 -90 callgsubr
          125 540 rmoveto
          -36 callsubr
        </CharString>
        <CharString name="seven">
          -107 21 -21 505 -20 140 75 hstem
          145 175 vstem
          30 700 rmoveto
          -195 30 vlineto
          0 50 40 10 80 vhcurveto
          355 hlineto
          -65 -195 -265 -90 -340 vvcurveto
          175 hlineto
          350 185 110 195 vvcurveto
          45 vlineto
          endchar
        </CharString>
        <CharString name="six">
          -17 -15 20 400 25 80 205 -25 25 hstemhm
          50 175 180 135 -135 170 -150 115 hintmask 11011100
          320 5 rmoveto
          -45 -50 50 185 120 40 45 50 40 50 -50 -150 -150 -50 -50 -35 hvcurveto
          45 685 rmoveto
          hintmask 11101001
          30 30 -15 0 hvcurveto
          -160 vlineto
          -67 callgsubr
          60 -70 70 -125 -180 -115 -120 -245 -255 110 -110 160 vhcurveto
          hintmask 11011010
          165 90 90 140 125 -90 90 -150 -80 -35 -60 0 265 55 55 90 hvcurveto
          endchar
        </CharString>
        <CharString name="slash">
          -287 -29 -21 800 -20 hstem
          325 750 rmoveto
          -345 -800 rlineto
          45 hlineto
          345 800 rlineto
          endchar
        </CharString>
        <CharString name="space">
          -357 endchar
        </CharString>
        <CharString name="sterling">
          -37 0 55 295 30 151 184 -20 20 hstemhm
          -70 callsubr
          -150 165 125 115 hintmask 11010110
          290 510 rmoveto
          150 7 33 35 45 hhcurveto
          30 10 -9 0 hvcurveto
          -150 vlineto
          hintmask 11100110
          -67 callgsubr
          55 -45 54 -130 -145 -79 -80 -125 -6 vhcurveto
          -6 -130 rlineto
          -74 -30 73 hlineto
          hintmask 11101010
          -8 -180 -5 -110 -30 -30 -40 -6 rlinecurve
          -24 530 175 -30 vlineto
          0 -50 -40 -10 -80 vhcurveto
          -295 hlineto
          0 90 10 5 105 vhcurveto
          8 180 rlineto
          177 30 -176 hlineto
          endchar
        </CharString>
        <CharString name="t">
          -187 -15 25 465 25 140 -20 hstem
          85 160 165 25 vstem
          85 500 rmoveto
          -70 -25 70 -305 hlineto
          -105 80 -80 135 80 55 55 100 vhcurveto
          -25 hlineto
          -85 -45 -45 -45 -45 -30 30 130 vhcurveto
          305 140 25 -140 140 -70 vlineto
          -60 -30 -30 -60 hvcurveto
          endchar
        </CharString>
        <CharString name="tcaron">
          -92 -15 25 401 -21 85 25 0 140 0 -20 hstemhm
          85 160 140 145 -120 25 hintmask 10101101
          85 500 rmoveto
          -70 -25 70 -305 hlineto
          -105 80 -80 135 80 55 55 100 vhcurveto
          -25 hlineto
          -85 -45 -45 -45 -45 -30 30 130 vhcurveto
          305 140 25 -140 140 -70 vlineto
          -60 -30 -30 -60 hvcurveto
          hintmask 01010010
          335 -160 -106 callgsubr
        </CharString>
        <CharString name="tcommaaccent">
          -187 -289 -30 callsubr
          45 25 465 25 140 -20 hstemhm
          85 160 -45 145 65 25 hintmask 00111101
          85 500 rmoveto
          -70 -25 70 -305 hlineto
          -105 80 -80 135 80 55 55 100 vhcurveto
          -25 hlineto
          -85 -45 -45 -45 -45 -30 30 130 vhcurveto
          305 140 25 -140 140 -70 vlineto
          -60 -30 -30 -60 hvcurveto
          hintmask 11000010
          150 -860 -106 callgsubr
        </CharString>
        <CharString name="thorn">
          -12 -200 215 -30 30 465 35 -35 220 hstemhm
          90 160 165 170 hintmask 10011100
          30 24 callgsubr
          -840 vlineto
          38 callsubr
          hintmask 01101100
          0 45 -40 70 130 23 callsubr
          -115 -85 -45 -65 0 vhcurveto
          160 vlineto
          hintmask 10011100
          60 -30 30 -60 vhcurveto
          90 -300 rmoveto
          0 35 80 55 35 40 -40 -190 -195 -40 -40 -50 -40 -35 40 0 vhcurveto
          endchar
        </CharString>
        <CharString name="three">
          -52 -15 25 345 25 130 205 -25 25 hstemhm
          25 115 -100 115 180 170 -140 140 -140 170 hintmask 1110100010000000
          240 -15 rmoveto
          210 85 85 110 185 -245 5 0 hvcurveto
          hintmask 1110011000000000
          0 215 5 160 vvcurveto
          95 -85 85 -175 -135 2 callsubr
          hintmask 1101101000000000
          0 30 15 40 60 50 -50 -105 -105 -50 -50 -55 vhcurveto
          -50 -25 50 hlineto
          hintmask 1110100100000000
          80 55 -55 -120 -115 -55 -55 -90 -50 51 callsubr
          hintmask 1110101000000000
          -50 callgsubr
          -60 70 -70 145 vhcurveto
          endchar
        </CharString>
        <CharString name="threequarters">
          70 0 105 -30 30 255 20 150 20 30 130 -20 20 -10 -20 49 callsubr
          175 110 hintmask 0111100110010000
          360 75 rmoveto
          145 -50 hlineto
          -40 -10 rlineto
          hintmask 1011100110010000
          -15 190 15 vlineto
          -40 10 rlineto
          hintmask 0111001110010000
          12 callgsubr
          235 595 rmoveto
          hintmask 1011001100110000
          -25 callsubr
          -500 -340 rmoveto
          110 45 45 50 hvcurveto
          hintmask 1011100110010000
          -6 callgsubr
          hintmask 1011010110010000
          25 callgsubr
          hintmask 1011100101010000
          30 callsubr
          hintmask 1011100110010000
          31 callgsubr
        </CharString>
        <CharString name="threesuperior">
          -277 360 20 150 20 30 130 -20 20 49 callsubr
          hintmask 11101001
          175 360 rmoveto
          110 45 45 50 hvcurveto
          hintmask 11101100
          -6 callgsubr
          hintmask 11011100
          25 callgsubr
          hintmask 11101010
          30 callsubr
          hintmask 11101100
          31 callgsubr
        </CharString>
        <CharString name="tilde">
          -322 580 -4 callsubr
          hintmask 01000000
          205 580 rmoveto
          55 35 35 80 hvcurveto
          -20 hlineto
          -25 -20 -20 -25 vhcurveto
          hintmask 00100000
          -82 callsubr
          hintmask 10000000
          40 20 -50 60 hhcurveto
          endchar
        </CharString>
        <CharString name="trademark">
          253 381 -21 320 20 hstem
          30 60 50 110 50 60 65 25 255 110 vstem
          360 700 rmoveto
          -330 -125 20 hlineto
          0 40 40 65 vvcurveto
          50 -285 hlineto
          -40 -10 rlineto
          -15 190 15 vlineto
          -40 10 rlineto
          285 50 vlineto
          -65 40 -40 0 vhcurveto
          20 hlineto
          90 -175 rmoveto
          190 vlineto
          130 -230 rlineto
          20 hlineto
          105 230 rlineto
          -195 vlineto
          -40 -10 rlineto
          -15 190 15 vlineto
          -40 10 rlineto
          280 vlineto
          40 10 rlineto
          15 -80 vlineto
          -35 -29 -30 -25 -11 hvcurveto
          -67 -147 -83 147 rlineto
          25 -14 -31 30 -35 hhcurveto
          -85 -15 hlineto
          40 -10 rlineto
          -275 vlineto
          -50 -15 rlineto
          -15 125 15 vlineto
          endchar
        </CharString>
        <CharString name="two">
          -62 0 80 430 205 -25 25 hstemhm
          30 124 195 170 hintmask 11011000
          519 510 rmoveto
          125 -80 80 -185 -145 2 callsubr
          hintmask 10111000
          0 30 15 50 65 50 -50 -90 vhcurveto
          -205 -319 -55 -245 vvcurveto
          -45 495 200 -30 vlineto
          0 -50 -40 -10 -80 vhcurveto
          -370 hlineto
          hintmask 11011000
          70 200 384 -10 240 vvcurveto
          endchar
        </CharString>
        <CharString name="twosuperior">
          -292 370 45 165 130 hstemhm
          30 85 90 110 vstemhm
          175 710 rmoveto
          -24 callgsubr
          hvcurveto
          100 vlineto
          hintmask 11110000
          0 21 5 19 25 25 -25 -35 vhcurveto
          -110 -175 0 -120 vvcurveto
          -30 280 125 -20 vlineto
          0 -35 -35 -5 -45 vhcurveto
          -190 hlineto
          60 75 195 0 120 vvcurveto
          55 -45 45 -95 vhcurveto
          endchar
        </CharString>
        <CharString name="u">
          13 -15 35 -4 -21 505 31 callsubr
          hintmask 10111000
          25 40 callsubr
          -320 vlineto
          -85 80 -80 52 callgsubr
          hintmask 01111000
          -89 callgsubr
          hintmask 10111000
          -82 callgsubr
          endchar
        </CharString>
        <CharString name="uacute">
          -43 callgsubr
          91 -21 150 31 callsubr
          hintmask 10100110
          25 40 callsubr
          -320 vlineto
          -85 80 -80 52 callgsubr
          hintmask 01100110
          -89 callgsubr
          hintmask 10100110
          -82 callgsubr
          hintmask 00011000
          180 200 -100 callsubr
        </CharString>
        <CharString name="ubreve">
          -43 callgsubr
          90 -8 callsubr
          85 160 -75 -1 callsubr
          -60 160 hintmask 1010010010000000
          25 40 callsubr
          -320 vlineto
          -85 80 -80 52 callgsubr
          hintmask 0110010010000000
          -89 callgsubr
          hintmask 1010010010000000
          -82 callgsubr
          hintmask 0001001100000000
          165 90 -45 callgsubr
          hintmask 0000101100000000
          -105 callsubr
          hintmask 0001001100000000
          -52 callsubr
        </CharString>
        <CharString name="ucircumflex">
          -43 callgsubr
          106 -21 165 31 callsubr
          hintmask 10100110
          25 40 callsubr
          -320 vlineto
          -85 80 -80 52 callgsubr
          hintmask 01100110
          -89 callgsubr
          hintmask 10100110
          -82 callgsubr
          hintmask 00011000
          30 65 -102 callsubr
        </CharString>
        <CharString name="udieresis">
          -43 callgsubr
          95 140 hstemhm
          85 160 -78 -20 callgsubr
          -82 160 hintmask 10101001
          25 40 callsubr
          -320 vlineto
          -85 80 -80 52 callgsubr
          hintmask 01101001
          -89 callgsubr
          hintmask 10101001
          -82 callgsubr
          hintmask 00010110
          12 145 rmoveto
          -107 callgsubr
          185 hmoveto
          -107 callgsubr
          endchar
        </CharString>
        <CharString name="ugrave">
          -43 callgsubr
          101 -21 150 31 callsubr
          hintmask 10100110
          25 40 callsubr
          -320 vlineto
          -85 80 -80 52 callgsubr
          hintmask 01100110
          -89 callgsubr
          hintmask 10100110
          -82 callgsubr
          hintmask 00011000
          20 210 -84 callsubr
        </CharString>
        <CharString name="uhungarumlaut">
          -43 callgsubr
          80 150 -15 callgsubr
          hintmask 10101100
          25 40 callsubr
          -320 vlineto
          -85 80 -80 52 callgsubr
          hintmask 01101100
          -89 callgsubr
          hintmask 10101100
          -82 callgsubr
          hintmask 00010000
          102 210 -68 callsubr
        </CharString>
        <CharString name="umacron">
          -43 callgsubr
          120 45 -15 callgsubr
          hintmask 10101100
          25 40 callsubr
          -320 vlineto
          -85 80 -80 52 callgsubr
          hintmask 01101100
          -89 callgsubr
          hintmask 10101100
          -82 callgsubr
          hintmask 00010000
          295 100 -39 callsubr
        </CharString>
        <CharString name="underscore">
          -247 -100 45 hstem
          -55 vmoveto
          -45 390 45 vlineto
          endchar
        </CharString>
        <CharString name="uni00AD">
          -177 300 45 hstem
          30 61 callsubr
        </CharString>
        <CharString name="uogonek">
          13 -190 25 150 35 480 -20 hstemhm
          85 -10 callgsubr
          85 -65 160 hintmask 11111000
          25 40 callsubr
          -320 vlineto
          -85 80 -80 115 -45 callsubr
          0 15 -57 79 -15 vhcurveto
          -26 -7 -103 -36 -75 vvcurveto
          -78 callgsubr
          vhcurveto
          hintmask 11110100
          43 callgsubr
          470 vlineto
          -70 callgsubr
          -370 vlineto
          -82 callgsubr
          endchar
        </CharString>
        <CharString name="uring">
          -43 callgsubr
          75 35 130 35 hstemhm
          85 160 -30 50 110 50 -15 160 hintmask 1010010010000000
          25 40 callsubr
          -320 vlineto
          -85 80 -80 52 callgsubr
          hintmask 0110010010000000
          -89 callgsubr
          hintmask 1010010010000000
          -82 callgsubr
          hintmask 0001101100000000
          270 155 -72 callsubr
        </CharString>
        <CharString name="utilde">
          -43 callgsubr
          95 70 -20 20 -20 70 -15 callgsubr
          hintmask 10100011
          25 40 callsubr
          -320 vlineto
          -85 80 -80 52 callgsubr
          hintmask 01100011
          -89 callgsubr
          hintmask 10100011
          -82 callgsubr
          hintmask 00001000
          222 75 -74 callsubr
        </CharString>
        <CharString name="v">
          -77 11 -21 510 -20 hstem
          359 184 rmoveto
          -119 231 rlineto
          50 -26 -34 -54 callsubr
          50 -15 250 -480 rlineto
          30 hlineto
          190 465 80 30 rlineto
          15 -185 -22 callgsubr
          rlineto
          endchar
        </CharString>
        <CharString name="w">
          53 callgsubr
          hstem
          -97 callgsubr
          endchar
        </CharString>
        <CharString name="wacute">
          53 callgsubr
          101 -21 150 -20 hstemhm
          hintmask 11000000
          -97 callgsubr
          hintmask 00110000
          387 240 -100 callsubr
        </CharString>
        <CharString name="wcircumflex">
          53 callgsubr
          106 37 callsubr
          hintmask 11000000
          -97 callgsubr
          hintmask 00110000
          237 95 -102 callsubr
        </CharString>
        <CharString name="wdieresis">
          53 callgsubr
          95 140 hstemhm
          250 -20 callgsubr
          hintmask 11000000
          -97 callgsubr
          hintmask 00111000
          220 175 rmoveto
          -107 callgsubr
          185 hmoveto
          -107 callgsubr
          endchar
        </CharString>
        <CharString name="wgrave">
          53 callgsubr
          101 -21 150 -20 hstemhm
          hintmask 11000000
          -97 callgsubr
          hintmask 00110000
          227 240 -84 callsubr
        </CharString>
        <CharString name="x">
          -82 -43 callsubr
          hstem
          90 45 rmoveto
          10 callsubr
          190 15 vlineto
          -75 30 105 134 60 -94 rlineto
          -50 32 33 -35 70 hhcurveto
          135 -14 callsubr
          -179 280 114 145 -88 callsubr
          75 -30 -94 -121 -51 81 rlineto
          50 -32 -33 35 -70 hhcurveto
          -135 3 callgsubr
          169 -266 rlineto
          endchar
        </CharString>
        <CharString name="y">
          6 callgsubr
          hstem
          55 115 vstem
          -103 callsubr
          endchar
        </CharString>
        <CharString name="yacute">
          6 callgsubr
          91 -21 150 -20 hstemhm
          55 115 hintmask 11001000
          -103 callsubr
          hintmask 00110000
          -153 245 -100 callsubr
        </CharString>
        <CharString name="ycircumflex">
          6 callgsubr
          101 37 callsubr
          55 115 hintmask 11001000
          -103 callsubr
          hintmask 00110000
          -308 105 -102 callsubr
        </CharString>
        <CharString name="ydieresis">
          6 callgsubr
          95 140 hstemhm
          55 115 -25 -20 callgsubr
          hintmask 11010000
          -103 callsubr
          hintmask 00101100
          -325 190 rmoveto
          -107 callgsubr
          185 hmoveto
          -107 callgsubr
          endchar
        </CharString>
        <CharString name="yen">
          28 0 220 -30 30 60 30 390 -20 hstemhm
          255 165 hintmask 01111000
          130 190 rmoveto
          125 -160 hlineto
          -86 callsubr
          hintmask 10111000
          -15 285 -100 callgsubr
          hintmask 01111000
          160 125 30 -125 50 vlineto
          4 10 rlineto
          121 30 -108 hlineto
          158 345 -29 callsubr
          -333 -148 293 rlineto
          50 -25 -35 -54 callsubr
          50 -15 180 -360 rlineto
          -100 -30 115 hlineto
          10 -20 rlineto
          -40 -125 vlineto
          endchar
        </CharString>
        <CharString name="ygrave">
          6 callgsubr
          91 -21 150 -20 hstemhm
          55 115 hintmask 11001000
          -103 callsubr
          hintmask 00110000
          -303 245 -84 callsubr
        </CharString>
        <CharString name="z">
          46 callsubr
          hstem
          50 95 265 95 vstem
          -76 callsubr
          endchar
        </CharString>
        <CharString name="zacute">
          46 callsubr
          33 callsubr
          50 95 265 95 hintmask 11001100
          -76 callsubr
          hintmask 00110000
          137 235 -100 callsubr
        </CharString>
        <CharString name="zcaron">
          46 callsubr
          86 -21 150 -20 hstemhm
          50 95 265 95 hintmask 11001100
          -76 callsubr
          hintmask 00110000
          270 240 -95 callsubr
        </CharString>
        <CharString name="zdotaccent">
          46 callsubr
          70 140 hstemhm
          50 95 62 140 63 95 hintmask 11010100
          -76 callsubr
          hintmask 00101000
          62 165 rmoveto
          -107 callgsubr
          endchar
        </CharString>
        <CharString name="zero">
          33 -15 20 690 20 hstem
          -7 callsubr
          230 175 vstem
          335 -15 rmoveto
          160 130 130 235 -41 callsubr
          -160 -160 -49 callsubr
          -235 -235 130 -130 160 hvcurveto
          20 vmoveto
          -55 -60 60 285 285 60 60 55 55 60 -60 -285 -285 -60 -60 -55 hvcurveto
          endchar
        </CharString>
      <CharString index="0">
        -40 30 -30 40 40 30 30 40 40 -30 30 -40 -40 -30 -30 -40 vhcurveto
        return
      </CharString>
      <CharString index="1">
        rmoveto
        0 110 35 130 vvcurveto
        55 -30 30 -45 -40 -30 -30 -40 -40 30 -30 40 25 15 1 callsubr
        -15 -80 -70 -13 callsubr
      </CharString>
      <CharString index="2">
        -87 callsubr
        120 -14 callsubr
        -285 680 rlineto
        -30 hlineto
        -275 -665 10 callsubr
        185 15 vlineto
        110 478 rmoveto
        110 -263 rlineto
        -219 hlineto
        return
      </CharString>
      <CharString index="3">
        5 rmoveto
        -45 -50 50 195 58 callsubr
        45 45 50 -50 8 callgsubr
        -50 -50 -45 hvcurveto
        510 vmoveto
        -165 -100 -100 -165 -165 100 -100 165 165 100 100 165 165 -100 100 -165 hvcurveto
        return
      </CharString>
      <CharString index="4">
        vlineto
        -104 callsubr
        return
      </CharString>
      <CharString index="5">
        48 callsubr
        rmoveto
        0 70 10 60 vhcurveto
        -145 -8 callgsubr
        -30 -30 30 80 60 20 45 0 vhcurveto
        40 280 rmoveto
        -130 -55 -55 -55 -45 30 -30 45 20 20 5 0 hvcurveto
        150 vlineto
        return
      </CharString>
      <CharString index="6">
        -440 -103 callgsubr
        return
      </CharString>
      <CharString index="7">
        15 vlineto
        -60 15 rlineto
        return
      </CharString>
      <CharString index="8">
        555 180 -30 hlineto
        0 -65 -50 -105 vvcurveto
        -235 310 115 hlineto
        10 -55 35 -45 0 vvcurveto
        30 225 -30 hlineto
        0 -35 -45 -10 -55 vhcurveto
        return
      </CharString>
      <CharString index="9">
        215 vlineto
        -79 callsubr
        -535 -15 hlineto
        -86 callgsubr
        -79 callgsubr
        return
      </CharString>
      <CharString index="10">
        260 -10 rmoveto
        30 hlineto
        122 308 148 -308 rlineto
        30 hlineto
        185 465 80 30 rlineto
        15 -185 -22 callgsubr
        -105 -270 -110 230 rlineto
        50 -24 -36 35 -75 hhcurveto
        -115 3 callgsubr
        67 -139 -57 -146 -110 230 rlineto
        50 -24 -36 35 -75 hhcurveto
        -115 3 callgsubr
        rlineto
        return
      </CharString>
</ttFont>
